<?xml version="1.0" encoding="UTF-8" standalone="no"?>
<!-- Created with Inkscape (http://www.inkscape.org/) -->

<svg
   width="210mm"
   height="297mm"
   viewBox="0 0 210 297"
   version="1.1"
   id="svg1"
   inkscape:version="1.3.2 (091e20e, 2023-11-25, custom)"
   sodipodi:docname="shapes.svg"
   xmlns:inkscape="http://www.inkscape.org/namespaces/inkscape"
   xmlns:sodipodi="http://sodipodi.sourceforge.net/DTD/sodipodi-0.dtd"
   xmlns="http://www.w3.org/2000/svg"
   xmlns:svg="http://www.w3.org/2000/svg">
  <sodipodi:namedview
     id="namedview1"
     pagecolor="#ffffff"
     bordercolor="#000000"
     borderopacity="0.25"
     inkscape:showpageshadow="2"
     inkscape:pageopacity="0.0"
     inkscape:pagecheckerboard="0"
     inkscape:deskcolor="#d1d1d1"
     inkscape:document-units="mm"
     showgrid="true"
     inkscape:zoom="0.5121316"
     inkscape:cx="1192.0764"
     inkscape:cy="649.24719"
     inkscape:window-width="1920"
     inkscape:window-height="1009"
     inkscape:window-x="1015"
     inkscape:window-y="2152"
     inkscape:window-maximized="1"
     inkscape:current-layer="layer1">
    <inkscape:grid
       id="grid1"
       units="mm"
       originx="0"
       originy="0"
       spacingx="0.99999998"
       spacingy="1"
       empcolor="#0099e5"
       empopacity="0.30196078"
       color="#0099e5"
       opacity="0.14901961"
       empspacing="5"
       dotted="false"
       gridanglex="30"
       gridanglez="30"
       visible="true" />
  </sodipodi:namedview>
  <defs
     id="defs1" />
  <g
     inkscape:label="Layer 1"
     inkscape:groupmode="layer"
     id="layer1">
    <path
       id="path1"
       style="stroke-width:0.0969322"
       d="M 51.868714,239.62769 A 10.078746,10.078746 0 0 1 41.789968,249.70643 10.078746,10.078746 0 0 1 31.711222,239.62769 10.078746,10.078746 0 0 1 41.789968,229.54894 10.078746,10.078746 0 0 1 51.868714,239.62769 Z" />
    <path
       id="path2"
       style="stroke-width:0.142318"
       inkscape:transform-center-y="-3.4317309"
       d="M 82.198874,249.26453 H 70.311008 58.42314 l 5.943935,-10.2952 5.943933,-10.29519 5.943933,10.29519 z" />
    <path
       style="color:#000000;fill:#000000;fill-rule:evenodd;stroke-width:0.689164;stroke-linecap:round;-inkscape-stroke:none"
       d="m 61.184951,268.01423 c -2.158702,-0.16279 -4.371324,0.34187 -6.343806,1.68523 -1.862479,1.26843 -3.183661,3.20886 -3.70156,5.37062 -0.517907,2.16177 -0.164166,4.63507 1.451006,6.56456 1.003043,1.19823 2.423348,1.99115 4.012497,2.22094 1.589149,0.22978 3.523721,-0.29557 4.64916,-1.88848 0.760334,-1.07614 0.779892,-2.00139 0.527644,-3.11873 -0.126123,-0.55867 -0.386827,-1.23775 -1.103737,-1.73368 -0.716916,-0.49592 -1.764231,-0.49632 -2.492835,-0.19786 a 1.7229092,1.7229092 0 0 0 -0.940874,2.24651 1.7229092,1.7229092 0 0 0 1.047212,0.93683 c -0.29816,0.32561 -0.617719,0.4277 -1.192578,0.34458 -0.66456,-0.0961 -1.478366,-0.56066 -1.864242,-1.02163 -0.869277,-1.03844 -1.052787,-2.25774 -0.743008,-3.55081 0.309786,-1.29306 1.181929,-2.57073 2.290931,-3.32601 3.4616,-2.35752 8.293867,-0.6926 10.434377,2.82529 2.937209,4.82728 0.646979,11.21639 -4.183442,13.95287 -6.183597,3.50308 -14.137214,0.57343 -17.453883,-5.57792 a 1.7229092,1.7229092 0 0 0 -2.334001,-0.69992 1.7229092,1.7229092 0 0 0 -0.699932,2.334 c 4.190302,7.77166 14.207805,11.46279 22.186494,6.94279 6.423793,-3.63915 9.459543,-12.11843 5.428503,-18.74337 -1.92974,-3.17151 -5.376092,-5.29448 -8.973926,-5.56581 z"
       id="path3" />
    <path
       id="path4"
       style="stroke-width:3.44581;stroke-linecap:round"
       inkscape:transform-center-x="0.1394814"
       inkscape:transform-center-y="-1.1384081"
       d="m 103.20579,291.60175 -7.963323,-3.84792 -7.684361,4.37854 1.198793,-8.76265 -6.53884,-5.95522 8.70422,-1.56768 3.643139,-8.05907 4.180701,7.79377 8.790431,0.97444 -6.1204,6.38449 z" />
    <path
       style="fill:#000000;stroke-width:2.45953;stroke-linecap:round;stroke-dasharray:none"
       d="m 16.333786,277.63213 c 0,0 -1.834219,-7.34138 -7.4947716,-7.34138 -12.7763148,0 -4.9098388,24.68123 7.6372536,24.79861 12.547092,0.11738 18.756815,-24.6616 7.495547,-24.74598 -5.034255,-0.0377 -7.638029,7.28875 -7.638029,7.28875 z"
       id="path5"
       sodipodi:nodetypes="cszsc" />
    <path
       id="rect5"
       style="stroke-width:3.06418;stroke-linecap:round"
       d="m 5.125333,228.96771 h 18.581871 v 18.58187 H 5.125333 Z" />
    <path
       id="path6"
       style="fill:#000000;stroke-width:3.44581;stroke-linecap:round;stroke-dasharray:none"
       d="m 94.759572,229.66179 a 3.3358322,3.3358322 0 0 0 -3.33592,3.33592 3.3358322,3.3358322 0 0 0 1.68773,2.89111 10.511017,10.511017 0 0 0 -0.91919,4.28395 10.511017,10.511017 0 0 0 10.510988,10.51133 10.511017,10.511017 0 0 0 10.51097,-10.51133 10.511017,10.511017 0 0 0 -0.76996,-3.94384 3.3358322,3.3358322 0 0 0 1.90354,-3.00899 3.3358322,3.3358322 0 0 0 -3.33592,-3.33592 3.3358322,3.3358322 0 0 0 -2.70627,1.3989 10.511017,10.511017 0 0 0 -5.60236,-1.62113 10.511017,10.511017 0 0 0 -5.217748,1.41493 3.3358322,3.3358322 0 0 0 -2.72586,-1.41493 z" />
    <path
       style="color:#000000;fill:#000000;stroke-linecap:round;-inkscape-stroke:none"
       d="m 25.239167,254.84699 c -1.591447,0.0325 -2.894369,0.79733 -3.818359,1.75 -0.92399,0.95267 -1.570515,2.08017 -2.191406,3.11914 -0.620891,1.03898 -1.216093,1.98675 -1.839844,2.60157 -0.623751,0.61481 -1.183149,0.92187 -2.097656,0.92187 -0.914507,0 -1.35319,-0.27715 -1.865234,-0.85547 -0.512045,-0.57832 -0.979221,-1.50979 -1.464844,-2.54297 -0.485624,-1.03317 -0.98826,-2.16628 -1.824219,-3.14257 -0.8359586,-0.9763 -2.1368376,-1.75196 -3.7285152,-1.75196 a 1.30267,1.30267 0 0 0 -1.3027344,1.30274 1.30267,1.30267 0 0 0 1.3027344,1.30273 c 0.8560423,0 1.2544453,0.2611 1.75,0.83984 0.4955546,0.57875 0.9563816,1.51838 1.4453126,2.5586 0.4889306,1.04021 1.0062956,2.18343 1.8710936,3.16015 0.864797,0.97673 2.192536,1.73438 3.816406,1.73438 1.623869,0 2.970665,-0.72852 3.927734,-1.67188 0.957069,-0.94335 1.620461,-2.07418 2.246094,-3.12109 0.625633,-1.04691 1.212718,-2.0121 1.824219,-2.64258 0.6115,-0.63048 1.145681,-0.93955 2.001953,-0.95703 0.854007,-0.0174 1.379427,0.26721 1.998047,0.87305 0.61862,0.60584 1.224372,1.55354 1.865234,2.58789 0.640863,1.03435 1.318364,2.15414 2.277344,3.08789 0.95898,0.93375 2.29853,1.65984 3.908203,1.64453 1.662516,-0.0158 3.029104,-0.71386 4.007812,-1.63476 0.978709,-0.92091 1.642898,-2.02412 2.257813,-3.0293 0.614915,-1.00519 1.183507,-1.91341 1.771484,-2.48828 0.587978,-0.57487 1.098247,-0.85402 1.996094,-0.8418 a 1.30267,1.30267 0 0 0 1.320313,-1.28516 1.30267,1.30267 0 0 0 -1.285157,-1.32031 c -1.595012,-0.0217 -2.921171,0.67433 -3.851562,1.58399 -0.930391,0.90965 -1.564908,1.9968 -2.173828,2.99218 -0.608921,0.99539 -1.189759,1.89888 -1.820313,2.49219 -0.630553,0.59331 -1.235916,0.91615 -2.248047,0.92578 -0.883173,0.008 -1.436106,-0.29058 -2.066406,-0.90429 -0.6303,-0.61372 -1.239198,-1.56322 -1.878906,-2.59571 -0.639708,-1.03248 -1.309715,-2.14766 -2.257813,-3.07617 -0.948097,-0.92851 -2.279333,-1.64971 -3.873047,-1.61719 z"
       id="path7" />
    <path
       style="color:#000000;fill:#000000;stroke-linecap:round;stroke-linejoin:round;-inkscape-stroke:none"
       d="m 75.342683,254.17707 a 1.3338984,1.3338984 0 0 0 -1.044922,0.5293 l -4.591797,6.05859 -4.683593,-6.06836 a 1.333765,1.333765 0 0 0 -1.871094,-0.24219 1.333765,1.333765 0 0 0 -0.240235,1.8711 l 5.748047,7.45117 a 1.3338984,1.3338984 0 0 0 2.119141,-0.01 l 4.611328,-6.08594 4.886719,6.11328 a 1.3338984,1.3338984 0 0 0 2.111328,-0.0371 l 4.5,-6.05078 4.566406,5.80664 a 1.3338984,1.3338984 0 0 0 2.060547,0.0449 l 5.851567,-6.81445 a 1.333765,1.333765 0 0 0 -0.14258,-1.88086 1.333765,1.333765 0 0 0 -1.880862,0.14258 l -4.794922,5.58398 -4.642578,-5.90234 a 1.3338984,1.3338984 0 0 0 -2.117187,0.0273 l -4.507813,6.0625 -4.878906,-6.09961 a 1.3338984,1.3338984 0 0 0 -1.058594,-0.5 z"
       id="path8" />
  </g>
</svg>
