<?xml version="1.0" encoding="UTF-8" standalone="no"?>
<svg
   sodipodi:docname="unko.svg"
   inkscape:version="1.3 (0e150ed6c4, 2023-07-21)"
   id="svg8"
   version="1.1"
   viewBox="0 0 210 297"
   height="297mm"
   width="210mm"
   xml:space="preserve"
   xmlns:inkscape="http://www.inkscape.org/namespaces/inkscape"
   xmlns:sodipodi="http://sodipodi.sourceforge.net/DTD/sodipodi-0.dtd"
   xmlns="http://www.w3.org/2000/svg"
   xmlns:svg="http://www.w3.org/2000/svg"
   xmlns:rdf="http://www.w3.org/1999/02/22-rdf-syntax-ns#"
   xmlns:cc="http://creativecommons.org/ns#"
   xmlns:dc="http://purl.org/dc/elements/1.1/"><defs
     id="defs2" /><sodipodi:namedview
     inkscape:window-maximized="0"
     inkscape:window-y="47"
     inkscape:window-x="97"
     inkscape:window-height="1040"
     inkscape:window-width="1662"
     inkscape:snap-smooth-nodes="true"
     inkscape:snap-bbox="false"
     showgrid="true"
     inkscape:document-rotation="0"
     inkscape:current-layer="layer1"
     inkscape:document-units="mm"
     inkscape:cy="215.16249"
     inkscape:cx="543.96714"
     inkscape:zoom="0.98994951"
     inkscape:pageshadow="2"
     inkscape:pageopacity="0.0"
     borderopacity="1.0"
     bordercolor="#666666"
     pagecolor="#ffffff"
     id="base"
     inkscape:showpageshadow="2"
     inkscape:pagecheckerboard="0"
     inkscape:deskcolor="#d1d1d1"><inkscape:grid
       id="grid833"
       type="xygrid"
       originx="0"
       originy="0"
       spacingy="1"
       spacingx="1"
       units="mm"
       visible="true" /></sodipodi:namedview><metadata
     id="metadata5"><rdf:RDF><cc:Work
         rdf:about=""><dc:format>image/svg+xml</dc:format><dc:type
           rdf:resource="http://purl.org/dc/dcmitype/StillImage" /><dc:title /></cc:Work></rdf:RDF></metadata><g
     id="layer1"
     inkscape:groupmode="layer"
     inkscape:label="レイヤー 1"><path
       sodipodi:nodetypes="cscscszscscssc"
       d="m 50.270831,216.95833 c 0,0 -22.489586,10.58334 -22.489583,18.52084 0,3.96875 2.645833,5.29166 2.645833,5.29166 0,0 -15.874997,6.61459 -15.874997,17.19792 0,6.61458 3.968747,6.61458 3.968747,6.61458 0,0 -13.2291643,2.64584 -13.2291643,14.55209 0,10.07503 7.9374983,9.26041 41.0104143,9.26041 33.072916,0 39.687499,1.32292 39.687499,-5.29166 0,-15.875 -11.906247,-18.52084 -11.906247,-18.52084 0,0 3.96875,0 3.96875,-6.61458 0,-10.58333 -15.875002,-17.19792 -15.875002,-17.19792 0,0 2.645833,-1.32291 2.645833,-5.29166 0,-3.96875 -9.260417,-7.9375 -13.229167,-11.90625 -2.645833,-2.64584 -1.322916,-6.61459 -1.322916,-6.61459 z"
       style="fill:none;stroke:#000000;stroke-width:0.265;stroke-linecap:butt;stroke-linejoin:miter;stroke-opacity:1;stroke-dasharray:none"
       id="path835" /><path
       sodipodi:type="star"
       style="fill:none;stroke:#fe0000;stroke-width:0.26458333;stroke-dasharray:none"
       id="path1"
       inkscape:flatsided="false"
       sodipodi:sides="5"
       sodipodi:cx="65"
       sodipodi:cy="104.99999"
       sodipodi:r1="35.413952"
       sodipodi:r2="17.706976"
       sodipodi:arg1="0.93175286"
       sodipodi:arg2="1.5600714"
       inkscape:rounded="0"
       inkscape:randomized="0"
       d="M 86.12187,133.42559 65.189902,122.70595 44.492667,133.87208 48.219317,110.65204 31.203901,94.418325 54.439065,90.787194 64.620195,69.588077 75.253666,90.56395 98.561366,93.695893 81.898049,110.29083 Z"
       inkscape:transform-center-x="0.117367"
       inkscape:transform-center-y="-3.2699164"
       transform="translate(53.092487,152.87007)" /><path
       sodipodi:type="star"
       style="fill:none;stroke:#fe0000;stroke-width:0.264583;stroke-dasharray:none"
       id="path2"
       inkscape:flatsided="false"
       sodipodi:sides="3"
       sodipodi:cx="45.640621"
       sodipodi:cy="106.96726"
       sodipodi:r1="34.017857"
       sodipodi:r2="17.008928"
       sodipodi:arg1="-1.5707963"
       sodipodi:arg2="-0.52359878"
       inkscape:rounded="0"
       inkscape:randomized="0"
       d="m 45.640622,72.949406 14.730163,25.513392 14.730164,25.513392 -29.460328,0 -29.460328,0 14.730164,-25.513392 z"
       inkscape:transform-center-y="-8.5044655"
       transform="translate(-3.0057025,84.293893)" /><path
       style="color:#000000;fill:none;fill-rule:evenodd;stroke-linecap:round;stroke:#000000;stroke-opacity:1;stroke-width:0.26458333;stroke-dasharray:none"
       d="m 115.37305,142.25195 c -9.73986,0.36422 -19.308559,4.39275 -26.253909,12.19141 -12.579042,14.12451 -12.054478,36.62223 2.425781,49.36914 12.990548,11.43552 33.602068,10.90628 45.203128,-2.46094 10.29024,-11.85683 9.75384,-30.58674 -2.50586,-41.03906 -10.72351,-9.1426 -27.57561,-8.59565 -36.875003,2.56445 -7.991729,9.59079 -7.43376,24.56896 2.638673,32.70899 8.45916,6.83625 21.57884,6.26361 28.54883,-2.74024 5.67399,-7.32968 5.07795,-18.61026 -2.89063,-24.39062 -6.20539,-4.50136 -15.69367,-3.86617 -20.24218,3.13281 -1.6566,2.54907 -2.26867,5.56506 -1.78711,8.52148 0.48156,2.95643 2.28299,5.98318 5.375,7.58204 2.04762,1.05881 4.2496,1.30166 6.51171,0.71679 2.26212,-0.58487 4.79079,-2.56091 5.43555,-5.46484 0.53647,-2.41618 -0.0206,-3.49862 -1.12695,-5.05274 -0.55316,-0.77705 -1.45206,-1.76549 -3.12305,-2.11914 -1.67099,-0.35364 -3.56983,0.47804 -4.51367,1.42188 a 3.96875,3.96875 0 0 0 -0.70313,1.70117 c -0.004,-0.0247 -0.0174,-0.0352 -0.0215,-0.0606 -0.15075,-0.9255 0.0971,-2.13357 0.60938,-2.92187 1.81738,-2.79647 6.11773,-3.07014 8.92578,-1.0332 4.04491,2.93415 4.36717,9.11345 1.27539,13.10742 -4.06085,5.24581 -12.12403,5.59869 -17.28516,1.42773 -6.423561,-5.19119 -6.794313,-15.13854 -1.5293,-21.45703 6.32322,-7.58843 18.15695,-7.97226 25.62696,-1.60351 8.74542,7.45614 9.13925,21.1772 1.66015,29.79492 -8.58959,9.89727 -24.20007,10.29925 -33.962888,1.70508 -11.045574,-9.72338 -11.454914,-27.22483 -1.742187,-38.13086 10.857385,-12.19133 30.250975,-12.60541 42.298825,-1.77149 a 3.96875,3.96875 0 0 0 5.60547,-0.29687 3.96875,3.96875 0 0 0 -0.29687,-5.60547 c -7.62933,-6.86061 -17.54139,-10.16109 -27.28125,-9.79688 z m 2.43359,40.55469 c -0.1976,0.1976 -0.79988,0.45203 -1.48047,0.61328 a 3.96875,3.96875 0 0 0 1.48047,-0.61328 z"
       id="path3" /></g></svg>
