<?xml version="1.0" encoding="UTF-8" standalone="no"?>
<!-- Created with Inkscape (http://www.inkscape.org/) -->

<svg
   width="210mm"
   height="297mm"
   viewBox="0 0 210 297"
   version="1.1"
   id="svg1"
   inkscape:version="1.4.2 (f4327f4, 2025-05-13)"
   sodipodi:docname="cherry.svg"
   xmlns:inkscape="http://www.inkscape.org/namespaces/inkscape"
   xmlns:sodipodi="http://sodipodi.sourceforge.net/DTD/sodipodi-0.dtd"
   xmlns="http://www.w3.org/2000/svg"
   xmlns:svg="http://www.w3.org/2000/svg">
  <sodipodi:namedview
     id="namedview1"
     pagecolor="#ffffff"
     bordercolor="#000000"
     borderopacity="0.25"
     inkscape:showpageshadow="2"
     inkscape:pageopacity="0.0"
     inkscape:pagecheckerboard="0"
     inkscape:deskcolor="#d1d1d1"
     inkscape:document-units="mm"
     showgrid="true"
     inkscape:zoom="2.0334082"
     inkscape:cx="218.10673"
     inkscape:cy="154.17465"
     inkscape:window-width="1920"
     inkscape:window-height="1009"
     inkscape:window-x="1015"
     inkscape:window-y="2152"
     inkscape:window-maximized="1"
     inkscape:current-layer="layer1">
    <inkscape:grid
       id="grid1"
       units="mm"
       originx="0"
       originy="0"
       spacingx="0.99999998"
       spacingy="1"
       empcolor="#0099e5"
       empopacity="0.30196078"
       color="#0099e5"
       opacity="0.14901961"
       empspacing="5"
       enabled="true"
       visible="true" />
  </sodipodi:namedview>
  <defs
     id="defs1" />
  <g
     inkscape:label="Layer 1"
     inkscape:groupmode="layer"
     id="layer1">
    <path
       id="path1"
       style="opacity:0.97;fill:#000000;fill-opacity:1;fill-rule:evenodd;stroke:#000000;stroke-width:0.499999;stroke-linecap:round;stroke-linejoin:round;stroke-opacity:1"
       d="m 54.999744,5.0002116 c 0,0 -19.999743,9.9997884 -19.999813,29.9997194 -8.7e-5,25 9.999906,34.999931 9.999906,34.999931 l 9.999907,-9.999907 10.000423,9.999907 c 0,0 9.999995,-9.999931 9.999906,-34.999931 C 75.000002,15 54.999744,5.0002116 54.999744,5.0002116 Z m 0,5.9996334 c 2.209351,-1.51e-4 4.000423,1.790921 4.000272,4.000273 -1.35e-4,2.20915 -1.791122,3.999907 -4.000272,3.999756 -2.208948,-1.34e-4 -3.999621,-1.790807 -3.999756,-3.999756 -1.51e-4,-2.209151 1.790606,-4.000139 3.999756,-4.000273 z"
       sodipodi:nodetypes="cscccscccccc" />
  </g>
</svg>
