<?xml version="1.0" encoding="UTF-8" standalone="no"?>
<!-- Created with Inkscape (http://www.inkscape.org/) -->

<svg
   width="210mm"
   height="297mm"
   viewBox="0 0 210 297"
   version="1.1"
   id="svg1"
   xml:space="preserve"
   inkscape:version="1.4.2 (f4327f4, 2025-05-13)"
   sodipodi:docname="complex-heart.svg"
   xmlns:inkscape="http://www.inkscape.org/namespaces/inkscape"
   xmlns:sodipodi="http://sodipodi.sourceforge.net/DTD/sodipodi-0.dtd"
   xmlns="http://www.w3.org/2000/svg"
   xmlns:svg="http://www.w3.org/2000/svg"><sodipodi:namedview
     id="namedview1"
     pagecolor="#ffffff"
     bordercolor="#000000"
     borderopacity="0.25"
     inkscape:showpageshadow="2"
     inkscape:pageopacity="0.0"
     inkscape:pagecheckerboard="0"
     inkscape:deskcolor="#d1d1d1"
     inkscape:document-units="mm"
     inkscape:zoom="0.71891835"
     inkscape:cx="231.59793"
     inkscape:cy="544.5681"
     inkscape:window-width="1920"
     inkscape:window-height="1009"
     inkscape:window-x="1015"
     inkscape:window-y="2152"
     inkscape:window-maximized="1"
     inkscape:current-layer="layer1" /><defs
     id="defs1" /><g
     inkscape:label="Layer 1"
     inkscape:groupmode="layer"
     id="layer1"><path
       id="path2"
       style="opacity:0.97;fill:#000000;fill-rule:evenodd;stroke:#000000;stroke-width:0.1;stroke-linecap:round;stroke-linejoin:round;fill-opacity:1"
       d="M 88.61733 101.29718 A 10.084157 10.084157 0 0 0 78.533191 111.38132 A 10.084157 10.084157 0 0 0 82.949976 119.72241 C 73.89942 120.25519 65.133001 122.21111 56.453918 125.61249 C 53.415935 126.80309 47.293594 129.84157 44.369902 131.60954 C 34.748868 137.42741 26.149442 145.23619 19.50682 154.18749 C 10.790627 165.93304 5.1235702 179.44078 2.9662272 193.61247 C 1.7641322 201.50912 1.7260227 212.84323 2.8752767 220.73433 C 5.9300647 241.70937 16.865769 261.52644 32.690511 274.76462 C 47.016707 286.74919 63.36194 293.4006 82.17793 294.90241 C 85.028784 295.12992 91.930264 295.13857 94.946659 294.91843 C 107.87722 293.97478 119.69205 290.42715 131.10983 284.05966 C 133.53045 282.70972 139.37565 278.82649 141.54847 277.12469 C 150.29874 270.2713 157.04056 262.68158 162.8283 253.16904 C 169.58966 242.05629 173.85815 228.60067 175.00947 214.76932 C 175.25867 211.77568 175.25793 203.2677 175.00844 200.13662 C 173.99166 187.37592 170.49351 175.65749 164.36723 164.49229 C 155.44038 148.22301 141.79044 135.39532 125.05128 127.54415 C 117.61811 124.05778 109.81862 121.73884 101.54936 120.55647 C 99.071928 120.20224 96.622401 119.94332 94.197868 119.78029 A 10.084157 10.084157 0 0 0 98.701469 111.38132 A 10.084157 10.084157 0 0 0 88.61733 101.29718 z M 88.61733 104.58225 A 6.505908 6.505908 0 0 1 95.122876 111.08831 A 6.505908 6.505908 0 0 1 88.61733 117.59437 A 6.505908 6.505908 0 0 1 82.111267 111.08831 A 6.505908 6.505908 0 0 1 88.61733 104.58225 z M 80.410079 126.34939 C 83.421735 126.39332 86.137729 128.23491 88.166195 131.64933 C 88.58703 132.3577 88.984652 132.93641 89.049862 132.93556 C 89.11507 132.9347 89.462042 132.3777 89.820874 131.69739 C 90.771719 129.8947 92.730434 127.86908 94.242826 127.12454 C 95.293642 126.60722 95.713663 126.51021 97.192 126.44551 C 99.212786 126.35713 100.35121 126.6558 101.91161 127.68316 C 104.90098 129.65137 106.26258 133.53787 105.39563 137.62829 C 104.79266 140.4732 103.25352 142.68571 99.064754 146.7311 C 97.313174 148.42273 94.351379 151.3213 92.482727 153.17205 L 89.085002 156.53722 L 87.82203 155.24996 C 87.12726 154.54211 84.377413 151.92962 81.711808 149.44411 C 75.229542 143.3998 73.736452 141.57031 72.759383 138.47734 C 71.018017 132.96494 74.046424 127.21787 79.102148 126.44138 C 79.543317 126.37362 79.979842 126.34312 80.410079 126.34939 z M 69.382845 127.95136 C 69.412775 127.95335 69.432489 127.95863 69.441239 127.96738 C 69.488692 128.01483 69.321729 128.46032 69.070203 128.9575 C 67.101472 132.849 67.214391 137.85318 69.367859 142.16445 C 70.521301 144.47366 71.431756 145.54628 76.091996 150.08541 C 78.670303 152.5967 82.643523 156.52088 84.921431 158.80581 L 89.063298 162.9606 L 93.220667 158.80684 C 95.507249 156.52243 99.317571 152.76632 101.68785 150.45955 C 104.05813 148.15277 106.32735 145.80411 106.73095 145.24023 C 110.39544 140.12052 111.24577 134.18057 109.01764 129.26653 C 108.63103 128.41389 108.55407 128.09089 108.73755 128.09089 C 109.21077 128.09089 113.39952 129.35887 115.80068 130.22926 C 127.28738 134.39303 137.44824 140.96368 146.11615 149.83271 C 157.07381 161.04462 164.59174 175.45287 167.72671 191.24931 C 168.19299 193.59881 168.79371 198.05453 168.94989 200.32317 C 169.01341 201.24588 169.10372 202.18952 169.15092 202.4202 L 169.2367 202.8393 L 162.9885 202.8393 C 159.55202 202.8393 156.7424 202.77667 156.7434 202.69977 C 156.74509 202.62288 156.91702 201.67924 157.12529 200.60274 C 157.67802 197.74573 157.82598 190.93479 157.40486 187.74048 C 156.70697 182.44681 155.49402 178.31243 153.38495 174.04002 C 149.01143 165.1805 142.03784 158.67011 133.14795 155.14764 C 123.21533 151.21201 112.16552 152.19864 103.65155 157.78107 C 98.277602 161.30466 93.827855 166.28872 90.175891 172.87472 C 89.621672 173.87421 89.126443 174.69108 89.075183 174.68908 C 89.023922 174.68755 88.604295 174.00101 88.14294 173.16359 C 86.980243 171.05316 84.333697 167.05343 82.964962 165.33875 C 81.5545 163.57179 78.867495 160.86832 77.403544 159.7427 C 72.056633 155.63152 66.375202 153.45736 59.390173 152.84958 C 55.019682 152.4693 50.106515 153.16906 45.765165 154.79003 L 43.744617 155.54451 L 43.223201 155.00604 C 42.936441 154.70976 41.053608 152.50461 39.038961 150.10608 L 35.375618 145.74511 L 35.989018 145.20664 C 43.983736 138.18044 53.66351 132.67813 63.78112 129.40916 C 66.190214 128.63078 68.933902 127.92162 69.382845 127.95136 z M 31.204814 149.95726 C 31.222796 149.95778 31.238567 149.96177 31.251322 149.96966 C 31.517991 150.13447 38.372812 158.30904 38.372335 158.46165 C 38.372152 158.5203 37.999978 158.80312 37.544995 159.09055 C 35.362478 160.46937 32.377573 163.13839 30.25035 165.61315 C 24.895601 171.84273 21.586298 179.56709 20.67419 187.9663 C 20.18189 192.49968 20.569234 199.02871 21.526335 202.32667 C 21.615254 202.63308 21.213134 202.65326 14.898315 202.65326 L 8.1746948 202.65326 L 8.1746948 201.71275 C 8.1746948 201.1957 8.3056591 199.58139 8.4656331 198.12486 C 9.5195991 188.52872 11.969463 179.94758 16.092558 171.41073 C 18.044239 167.36979 19.422693 164.96542 22.065837 160.99121 C 25.247175 156.20777 30.455563 149.9354 31.204814 149.95726 z M 122.01684 156.20907 C 122.94658 156.21411 123.75624 156.25341 124.2627 156.33671 C 125.74188 156.58001 127.94782 157.02802 128.09037 157.11392 C 128.1726 157.16349 127.87715 157.43393 127.43408 157.71492 C 125.95912 158.65031 124.80293 160.49692 124.55364 162.31567 C 124.49187 162.76636 124.39029 163.13493 124.32729 163.13475 C 124.26433 163.13456 123.97547 162.75869 123.68547 162.29965 C 123.01563 161.23938 120.93307 159.31456 119.57255 158.49782 C 118.4448 157.82082 116.31636 156.9837 115.72265 156.9837 C 115.52227 156.9837 115.35833 156.90955 115.35833 156.81885 C 115.35833 156.48671 119.22763 156.19394 122.01684 156.20907 z M 54.58995 156.25558 C 56.85759 156.04687 62.609331 156.42036 62.603931 156.77596 C 62.602972 156.83891 61.994409 157.0752 61.252075 157.30099 C 58.846231 158.03277 56.372787 159.80646 54.830245 161.90588 C 54.371229 162.5306 53.973991 163.06435 53.947611 163.09185 L 53.947095 163.09237 L 53.946578 163.09237 L 53.946061 163.09289 L 53.945544 163.09289 L 53.945028 163.09289 L 53.944511 163.09289 L 53.943994 163.09237 C 53.90879 163.07699 53.75452 162.55484 53.592078 161.89658 C 53.096436 159.8881 51.813186 158.09161 50.479606 157.53922 C 50.177128 157.41393 49.929769 157.24959 49.929769 157.17439 C 49.929769 156.96563 52.604117 156.43834 54.58995 156.25558 z M 66.147384 158.84767 C 69.053709 158.84767 71.4099 159.78848 73.34126 161.71984 C 74.740823 163.11941 75.52761 164.61871 75.945752 166.68233 C 76.406002 168.95376 76.110588 171.15701 74.917391 174.34595 L 74.543254 175.34485 L 72.47568 175.35209 C 71.338388 175.35608 70.366405 175.29166 70.315605 175.20946 C 70.264803 175.12726 70.527728 174.7049 70.900065 174.2705 C 71.684973 173.35474 72.567063 171.59735 72.843099 170.39942 C 73.457531 167.73293 72.419353 164.52048 70.435494 162.94923 C 69.069092 161.86702 67.709425 161.37706 66.053849 161.37206 C 64.366634 161.36643 63.342558 161.7308 62.183801 162.74821 C 60.643138 164.10093 60.042067 166.80405 60.905326 168.49618 C 61.491011 169.64422 62.943323 170.77769 63.829179 170.77769 C 64.263056 170.77769 64.13956 170.40424 63.454525 169.64598 C 62.555531 168.65091 62.320431 167.67119 62.681962 166.42757 C 63.133675 164.87373 64.26836 164.01183 65.858512 164.01583 C 67.490535 164.01954 68.966903 164.91631 69.740446 166.37382 C 70.060946 166.97771 70.14929 167.46275 70.15179 168.63415 C 70.154587 169.92655 70.087074 170.24076 69.645361 170.99215 C 68.160873 173.51739 64.743707 175.09097 60.719808 175.10197 C 56.793189 175.11274 54.791906 173.5345 54.621472 170.29296 C 54.468407 167.38178 55.609534 164.69339 58.022298 162.27898 C 60.365384 159.93431 62.93806 158.84767 66.147384 158.84767 z M 47.959347 158.84819 C 48.694817 158.83571 49.502356 159.14812 50.219157 159.80885 C 51.337786 160.83996 51.854518 162.20357 51.867118 164.16001 C 51.877645 165.79506 51.461856 166.97971 50.248612 168.77368 C 49.559699 169.79223 49.37063 169.86991 49.37063 169.13386 C 49.37063 168.38407 48.855681 166.7307 48.302995 165.70668 L 47.829639 164.83025 L 48.400146 164.35017 C 49.049859 163.80348 49.306868 162.96645 49.000627 162.39422 L 48.791854 162.00458 L 48.310746 162.38337 C 47.718496 162.84928 46.734632 162.87526 46.336707 162.43556 C 45.808555 161.85196 45.608304 161.07725 45.82511 160.45532 C 46.187107 159.4169 47.013741 158.86422 47.959347 158.84819 z M 111.35858 158.88798 C 113.78364 158.78887 115.54064 159.17905 117.64191 160.28324 C 119.93978 161.49073 122.08208 163.99641 123.03952 166.59603 C 123.63193 168.20446 123.64226 171.289 123.05864 172.37966 C 122.58317 173.26823 121.5191 174.25692 120.64432 174.62242 C 119.576 175.06879 117.64676 175.24679 116.02444 175.04926 C 110.90518 174.42595 107.59453 171.57294 107.95362 168.09362 C 108.20181 165.68892 109.9672 163.9975 112.2071 164.0179 C 113.79591 164.03237 114.84314 164.72629 115.44257 166.16092 C 115.93688 167.34398 115.68274 168.49447 114.63486 169.81754 C 113.96933 170.65783 114.10956 170.9154 115.02399 170.53223 C 118.07021 169.25579 118.59069 165.05248 115.98569 162.76526 C 114.79237 161.7175 113.79791 161.36786 112.00298 161.36586 C 110.62497 161.36428 110.27302 161.43551 109.30237 161.91208 C 107.11566 162.98572 105.67251 164.97559 105.25559 167.49159 C 104.90118 169.63039 105.58752 171.98351 107.18157 174.0948 C 107.59634 174.64416 107.88811 175.14113 107.83011 175.19913 C 107.7721 175.25715 106.80395 175.3163 105.67882 175.3309 L 103.63347 175.35777 L 102.93739 173.30053 C 102.34916 171.56147 102.22932 170.93328 102.16172 169.23463 C 102.05099 166.45351 102.42771 165.03128 103.83242 162.92287 C 104.82108 161.43893 106.256 160.25271 107.90039 159.5608 C 109.1102 159.05175 109.57971 158.96068 111.35858 158.88798 z M 130.25406 158.89521 C 131.18194 158.94025 131.90087 159.43369 132.25756 160.28737 C 133.00255 162.07038 131.14038 163.64414 129.78846 162.37407 L 129.35024 161.96221 L 129.17661 162.41851 C 128.91329 163.11108 129.13349 163.83166 129.77244 164.3693 L 130.34863 164.85402 L 129.91868 165.60074 C 129.68232 166.01142 129.3033 167.1044 129.07636 168.02954 L 128.66398 169.7116 L 128.06092 168.89305 C 127.72936 168.44296 127.2314 167.61362 126.95401 167.04975 C 126.50777 166.14268 126.44965 165.80923 126.44965 164.16001 C 126.44965 162.45984 126.49873 162.19874 127.00878 161.18603 C 127.73051 159.75303 128.65858 159.00616 129.84427 158.904 C 129.98491 158.89188 130.12151 158.88878 130.25406 158.89521 z M 43.853137 159.43058 C 43.860994 159.43097 43.866416 159.43249 43.869674 159.43575 C 43.907034 159.47311 43.88996 160.02747 43.83195 160.6672 C 43.773942 161.30692 43.675492 161.82161 43.612842 161.81131 C 43.550189 161.80101 43.163556 161.71187 42.753463 161.61287 C 42.343371 161.51387 41.588145 161.48038 41.075529 161.53898 L 40.143286 161.64595 L 40.657467 161.21703 C 41.219866 160.74817 43.609575 159.41846 43.853137 159.43058 z M 134.2962 159.43678 C 134.51379 159.43413 136.03836 160.24528 137.16785 160.97157 L 138.19312 161.63096 L 136.60872 161.62373 C 135.73727 161.61993 134.88929 161.66928 134.72459 161.73328 C 134.475 161.83022 134.40753 161.65453 134.31893 160.67701 C 134.26043 160.03197 134.23986 159.47658 134.27346 159.44298 C 134.27763 159.43881 134.28549 159.43691 134.2962 159.43678 z M 141.58412 164.07061 C 141.58485 164.07052 141.58543 164.07063 141.58619 164.07061 C 141.89112 164.06036 145.52121 167.92755 145.89342 168.67136 C 146.08839 169.061 146.29943 169.64904 146.36213 169.97826 C 146.42483 170.30749 146.41599 170.61093 146.34249 170.65263 C 146.26896 170.6943 145.8836 170.48918 145.48621 170.19685 C 145.08882 169.90452 144.28166 169.53017 143.69252 169.36486 L 142.62127 169.0641 L 142.53135 167.82386 C 142.47963 167.10841 142.23596 166.07479 141.95516 165.38112 C 141.6874 164.71969 141.51472 164.13249 141.57172 164.07629 C 141.57468 164.07337 141.57905 164.07119 141.58412 164.07061 z M 41.542167 164.15949 C 41.855735 164.14601 42.17854 164.1727 42.504899 164.24269 C 43.651222 164.48854 43.986089 164.6644 44.926973 165.51444 C 46.477648 166.91538 46.754261 167.98092 46.947005 173.29433 C 47.032544 175.65236 47.158511 177.8041 47.227091 178.07647 L 47.351632 178.57205 L 45.891256 178.6909 C 45.087986 178.75644 43.592144 178.93686 42.566911 179.09191 C 39.841589 179.50407 36.966432 179.59046 35.914087 179.29138 C 32.725445 178.38515 31.453853 175.04354 33.454806 172.82873 C 34.364523 171.82178 35.580539 171.43714 37.377047 171.58901 C 38.129642 171.65265 38.745439 171.63287 38.745439 171.54457 C 38.745439 171.45624 38.615049 171.0165 38.455534 170.56788 C 38.058252 169.45061 38.062739 167.34436 38.464319 166.35315 C 38.999639 165.03183 40.183373 164.21792 41.542167 164.15949 z M 136.58184 164.23649 C 137.02008 164.25047 137.44524 164.31601 137.80709 164.43544 C 138.75624 164.74868 139.71727 165.95443 139.96355 167.1407 C 140.17001 168.13523 139.99122 170.00497 139.58838 171.06449 C 139.48741 171.33006 139.40493 171.56329 139.40493 171.58229 C 139.40493 171.60119 140.18051 171.6196 141.12885 171.6226 C 142.53937 171.62756 142.9954 171.7034 143.63464 172.04014 C 146.42597 173.51052 146.25503 177.21345 143.31942 178.86505 C 142.37342 179.39723 142.14264 179.44503 140.33665 179.48103 C 139.12002 179.50526 137.56811 179.38707 136.23561 179.16891 C 135.0566 178.97587 133.37454 178.76122 132.49734 178.69142 L 130.90209 178.56429 L 131.03903 177.60673 C 131.11422 177.08015 131.18296 175.47535 131.19096 174.04002 C 131.20977 170.79892 131.48077 168.34296 131.93303 167.32054 C 132.41597 166.22877 133.57177 165.00487 134.51582 164.58582 C 135.0847 164.3333 135.85145 164.21318 136.58184 164.23649 z M 36.414832 164.24579 C 36.545803 164.25341 36.439878 164.59208 36.189006 165.21317 C 35.92363 165.87017 35.687933 166.91268 35.628833 167.69416 L 35.52703 169.0424 L 34.631995 169.27184 C 34.139705 169.39801 33.261031 169.78754 32.679142 170.13794 L 31.620809 170.77511 L 31.750517 170.08626 C 31.973596 168.89715 32.573787 167.98588 34.332271 166.16815 C 35.589753 164.8683 36.207162 164.26458 36.401396 164.24631 C 36.406117 164.24586 36.410607 164.24554 36.414832 164.24579 z M 78.154919 165.0199 C 78.252234 165.01875 78.544648 165.31841 79.19775 166.03586 C 80.827146 167.82579 84.228451 172.48356 84.228451 172.92485 C 84.228451 172.97415 83.821459 173.01476 83.324113 173.01476 C 82.73078 173.01476 82.134515 173.1662 81.589335 173.45608 L 80.758378 173.89791 L 80.060746 173.54031 C 79.677048 173.34346 78.986037 173.16549 78.525439 173.14499 C 77.784793 173.11203 77.700391 173.0644 77.793701 172.73468 C 78.385519 170.64317 78.483309 169.83493 78.381262 167.88846 C 78.322138 166.76071 78.216948 165.59141 78.147168 165.29017 C 78.108405 165.12283 78.100061 165.02629 78.150269 165.02042 C 78.151715 165.02025 78.153375 165.01992 78.154919 165.0199 z M 99.99648 165.07261 C 100.07559 165.07101 100.06056 165.22089 99.997514 165.48396 C 99.926293 165.78114 99.820199 166.90629 99.761869 167.98406 C 99.679037 169.5145 99.726903 170.20839 99.979427 171.15286 C 100.54504 173.26831 100.57402 173.10299 99.626994 173.14499 C 99.164131 173.16552 98.53433 173.31219 98.227079 173.47107 C 97.521616 173.83591 97.334286 173.82681 96.531576 173.38735 C 96.157487 173.18254 95.501373 173.02751 94.993685 173.02251 C 94.506695 173.01821 94.107951 172.93503 94.107951 172.83803 C 94.107951 172.49455 96.704546 168.79539 98.198657 167.00996 C 99.352153 165.63158 99.845444 165.07566 99.99648 165.07261 z M 126.36955 169.37933 L 126.8274 169.93898 C 127.07908 170.24655 127.55831 171.00126 127.89245 171.6164 C 128.48375 172.70505 128.49997 172.79446 128.49397 174.97175 C 128.48516 178.13441 128.21319 179.19192 127.11317 180.34506 L 126.23364 181.26749 L 124.95258 180.75486 C 123.81961 180.30157 123.48692 180.25114 122.07782 180.31974 C 120.10849 180.41559 118.7208 180.99735 117.52409 182.22867 C 117.06884 182.69709 116.64657 183.0803 116.58617 183.0803 C 116.52585 183.0803 116.47661 182.74224 116.47661 182.32892 C 116.47661 181.40334 115.87716 179.57658 115.24465 178.57463 C 114.99084 178.17257 114.8079 177.82281 114.8302 177.7845 C 114.8303 177.78436 114.83103 177.78379 114.83123 177.78346 L 114.83123 177.78295 L 114.83175 177.78243 C 114.86478 177.75862 115.64692 177.82102 116.56963 177.92092 C 121.99953 178.50864 126.32413 175.11055 126.36283 170.22579 L 126.36955 169.37933 z M 51.686251 169.41912 L 51.917761 171.02367 C 52.206528 173.02395 52.859257 174.43478 54.043213 175.61874 C 55.831111 177.40663 58.468728 178.21373 61.725431 177.9695 L 63.362541 177.84703 L 62.817354 178.8325 C 62.517747 179.37467 62.179094 180.11575 62.064429 180.47942 C 61.949766 180.8431 61.793997 181.62369 61.718197 182.21368 L 61.580221 183.28597 L 60.882072 182.44985 C 60.429511 181.9077 59.742469 181.39619 58.92922 180.99567 C 57.749548 180.41466 57.557322 180.37762 55.712878 180.37762 C 53.821341 180.37762 53.450245 180.45989 52.137386 181.16982 C 51.887637 181.30487 50.602194 179.97953 50.284269 179.25934 C 49.580725 177.66561 49.391963 173.78723 49.946305 172.31351 C 50.051927 172.03272 50.486475 171.26627 50.912138 170.61077 L 51.686251 169.41912 z M 148.35322 172.08304 C 148.49516 172.08564 148.72144 172.42794 149.08806 172.99926 C 150.74049 175.57436 152.46338 179.82402 153.16274 183.05033 C 153.36001 183.96019 153.47143 184.70849 153.41803 184.75255 L 153.41751 184.75306 C 153.41728 184.7532 153.41619 184.75399 153.41596 184.7541 C 153.41572 184.75418 153.41465 184.75455 153.41441 184.75461 L 153.41389 184.75461 C 153.41364 184.75463 153.4126 184.75462 153.41234 184.75461 C 153.3461 184.75272 153.01779 184.45968 152.68267 184.10349 C 151.92247 183.29551 150.47563 182.54986 149.37641 182.3992 C 148.60304 182.29319 148.53874 182.24289 148.53874 181.74446 C 148.53874 181.04326 148.15744 180.14888 147.55327 179.43246 L 147.07113 178.8604 L 147.57187 177.84806 C 148.00796 176.96654 148.07549 176.59489 148.09329 174.97175 C 148.11604 172.90182 148.1318 172.07897 148.35322 172.08304 z M 29.788879 172.21584 C 29.809487 172.21619 29.826852 172.22333 29.841589 172.23807 C 29.939161 172.33565 30.032235 173.41048 30.048295 174.62655 C 30.074663 176.62345 30.12642 176.93645 30.583146 177.85891 L 31.089058 178.88055 L 30.63999 179.34926 C 30.083498 179.93026 29.611629 181.02857 29.611629 181.74343 C 29.611629 182.25204 29.558077 182.28917 28.672668 182.39403 C 27.540265 182.52815 26.054925 183.30217 25.317318 184.14225 C 25.01994 184.48095 24.740424 184.75823 24.696684 184.75823 C 24.521936 184.75823 25.39679 181.22961 26.009782 179.46191 C 27.057303 176.44115 29.281936 172.20728 29.788879 172.21584 z M 82.377917 175.1304 C 82.533277 175.11967 82.754435 175.16423 83.046094 175.2601 C 84.037965 175.58615 85.748737 177.41168 86.53477 178.98287 C 87.235564 180.38368 87.691638 182.54172 87.501119 183.55727 C 87.415811 184.012 87.288163 184.18897 87.062903 184.16447 C 86.888133 184.14553 86.304588 184.09933 85.766341 184.06163 C 84.86726 183.99873 84.78759 183.9556 84.78759 183.53092 C 84.78759 182.31501 83.662509 180.96403 82.46215 180.73884 L 81.825496 180.61947 L 82.188265 179.69963 C 82.623986 178.5942 82.658423 176.98852 82.266813 176.05127 C 82.013843 175.44582 82.036127 175.15399 82.377917 175.1304 z M 78.247937 175.25132 C 78.964226 175.25132 80.030859 176.1645 80.312927 177.01917 C 80.61293 177.92819 80.339308 178.73067 78.912496 181.12331 C 78.239976 182.25107 77.642265 183.36225 77.583895 183.59293 C 77.448843 184.12662 77.376475 184.11552 76.586023 183.43842 C 76.227192 183.13104 74.834727 182.33543 73.491638 181.67056 C 71.083895 180.47865 70.621012 180.08725 70.621012 179.24126 C 70.621012 178.70003 71.19237 177.86416 71.765129 177.56797 C 72.540986 177.16676 73.343992 177.3384 74.540153 178.16122 C 75.068417 178.5246 75.542585 178.77983 75.593835 178.72863 C 75.645085 178.67738 75.767957 178.27608 75.866687 177.83669 C 76.269561 176.04363 76.999302 175.25132 78.247937 175.25132 z M 95.520785 175.25132 C 96.260707 175.25132 96.238323 175.20139 95.878902 176.0616 C 95.483414 177.00815 95.528884 178.71363 95.976054 179.69911 C 96.42168 180.68118 96.420357 180.65719 96.030831 180.65719 C 95.433661 180.65719 94.191906 181.39709 93.867655 181.946 C 93.688628 182.24907 93.522426 182.8377 93.498686 183.25393 L 93.455794 184.01047 L 92.67548 184.01151 C 92.246431 184.01204 91.68872 184.09121 91.436279 184.18721 C 91.183838 184.28321 90.927055 184.31102 90.865255 184.24922 C 90.637934 184.0219 90.761379 181.25445 91.040955 180.31302 C 91.199544 179.77899 91.768339 178.69645 92.30496 177.90749 C 93.474388 176.18815 94.60891 175.25132 95.520785 175.25132 z M 100.03007 175.25132 C 101.25975 175.25132 101.96768 176.10272 102.39375 178.09404 C 102.53304 178.745 102.70541 178.73765 103.72649 178.03513 C 104.71693 177.35369 105.63648 177.16726 106.41676 177.49046 C 107.3397 177.87267 107.81654 179.21267 107.34435 180.09495 C 107.24273 180.28485 106.13155 180.94141 104.87474 181.55429 C 103.61794 182.16717 102.19297 182.97365 101.70852 183.34591 L 100.82795 184.02236 L 100.56957 183.40431 C 100.42754 183.06436 99.952642 182.20234 99.514339 181.48866 C 99.076046 180.77499 98.55204 179.9166 98.349552 179.58129 C 97.74056 178.57283 97.604863 177.60836 97.95061 176.74425 C 98.334837 175.78398 99.07654 175.25132 100.03007 175.25132 z M 109.28997 176.76492 C 109.40817 176.76202 109.57195 176.78323 109.7871 176.81763 C 111.39924 177.07542 113.16074 178.8429 113.79926 180.84374 C 114.22581 182.18034 114.22024 184.66539 113.78737 186.14523 C 113.15709 188.29994 112.25711 189.77424 110.53641 191.47048 L 110.53589 191.47048 C 109.05944 192.92594 106.59711 194.57701 106.59711 194.11167 C 106.59711 194.01543 107.17848 193.26373 107.88902 192.44148 C 110.75953 189.11964 111.62964 187.59571 111.62988 185.88891 C 111.63011 184.32492 110.70851 182.79875 109.2817 182.00026 C 108.98139 181.8322 108.98104 181.77319 109.27085 181.0489 C 109.65539 180.08795 109.66847 178.62016 109.30031 177.73902 C 108.99128 176.99943 108.93537 176.77362 109.28997 176.76492 z M 68.718803 176.86672 C 69.089618 176.86641 69.024027 177.07132 68.722937 178.37361 C 68.504995 179.31627 68.58505 180.1301 69.030929 181.50933 C 69.130776 181.81819 69.005922 181.9942 68.407194 182.39042 C 67.995612 182.6628 67.42356 183.28607 67.135954 183.77535 C 66.701016 184.51527 66.615864 184.86873 66.627974 185.87651 C 66.647622 187.51119 67.303957 188.76452 69.62314 191.59244 C 70.618382 192.80599 71.512236 193.90342 71.609066 194.03157 C 71.994736 194.54202 71.204573 194.23136 69.839148 193.33497 C 67.082701 191.52539 65.126455 188.86273 64.36248 185.88064 C 63.93632 184.21717 64.059817 181.45858 64.615694 180.22311 C 65.454129 178.35964 66.989312 177.00339 68.389624 176.88894 C 68.524099 176.87795 68.63323 176.8668 68.718803 176.86672 z M 32.850708 180.84943 C 33.099087 180.85008 33.404739 180.96741 33.783468 181.19876 C 34.761478 181.79617 36.303758 182.14857 37.94032 182.14857 C 38.779834 182.14857 39.469278 182.19455 39.490613 182.25141 C 39.490676 182.25163 39.491087 182.25273 39.49113 182.25296 L 39.49113 182.25347 L 39.49113 182.25399 C 39.49113 182.31209 39.275429 182.6429 39.011572 182.98883 C 37.754058 184.63752 37.377377 187.04866 37.964091 189.69798 C 38.168432 190.62069 38.314085 191.39846 38.287585 191.42656 C 38.169691 191.55158 37.767377 190.84222 36.716105 188.65412 C 35.377033 185.867 34.293619 184.33097 33.021757 183.41723 C 31.964141 182.6574 31.791266 182.26638 32.143258 181.42924 C 32.306775 181.04034 32.531363 180.84859 32.850708 180.84943 z M 145.50275 180.92952 C 145.81291 180.94183 145.97667 181.13189 146.11821 181.50417 C 146.40595 182.26096 146.1662 182.76657 145.2423 183.35108 C 144.08827 184.08117 142.96722 185.65962 141.44046 188.70424 C 140.73764 190.10578 140.06157 191.31522 139.93823 191.39142 C 139.79176 191.48195 139.74969 191.43703 139.81679 191.26223 C 139.87327 191.11504 140.06661 190.33421 140.24622 189.52693 C 140.78443 187.10773 140.35727 184.58634 139.13879 182.98883 C 138.87494 182.6429 138.65924 182.32146 138.65924 182.27466 C 138.65924 182.2279 139.5606 182.15705 140.66273 182.11705 C 142.46087 182.05179 142.80473 181.98016 144.0093 181.42045 C 144.73634 181.08264 145.19258 180.91722 145.50275 180.92952 z M 131.33669 181.40857 L 132.78724 181.41477 L 132.2281 181.82714 C 129.15197 184.09763 129.12716 188.03709 132.18056 189.42306 C 133.50493 190.0242 134.96285 189.7887 136.01805 188.80346 C 137.68199 187.24985 137.17637 184.38513 135.23826 184.38513 C 134.87886 184.38513 134.44873 184.52095 134.28276 184.68692 C 134.0047 184.965 134.00629 185.01645 134.29826 185.33907 C 135.08697 186.21058 134.18925 187.92131 133.08748 187.64643 C 132.39167 187.47283 131.97657 187.03827 131.73408 186.22894 C 131.54504 185.59795 131.57624 185.41366 132.02915 184.48796 C 132.68265 183.15224 133.75093 182.46793 135.18348 182.46793 C 136.867 182.46793 137.75976 183.18036 138.48199 185.09981 C 138.81736 185.99035 138.86945 186.46356 138.81375 188.11358 C 138.75304 189.91084 138.69228 190.18518 138.07374 191.46893 C 137.70326 192.23785 137.09475 193.21744 136.72137 193.64606 C 136.348 194.07468 135.70845 194.68961 135.30027 195.0129 L 134.55819 195.60098 L 134.55819 194.67649 C 134.55819 192.19379 132.76596 189.95713 130.10059 189.113 L 129.00556 188.76626 L 128.93373 186.97722 C 128.87169 185.43244 128.78256 185.02796 128.28003 184.01409 L 127.69815 182.84 L 128.14722 182.39093 C 128.86208 181.67607 129.75119 181.40257 131.33669 181.40857 z M 46.667952 181.4096 C 48.306982 181.40346 49.231849 181.65699 49.965942 182.3129 C 50.51894 182.80701 50.529986 182.84476 50.242928 183.28287 C 49.672726 184.15311 49.327035 185.41918 49.209399 187.06817 L 49.09106 188.72595 L 48.345369 188.94764 C 45.675729 189.74098 43.592528 192.21451 43.592171 194.59122 C 43.592088 195.13783 43.507097 195.56946 43.399935 195.56946 C 43.294412 195.56946 42.668408 195.0219 42.008805 194.35248 C 40.170581 192.48691 39.281491 190.30192 39.286491 187.66348 C 39.290754 185.41985 40.150756 183.43056 41.40109 182.77127 C 42.156251 182.37306 43.686482 182.36771 44.446899 182.76094 C 45.296004 183.20003 46.185022 184.19408 46.414738 184.9608 C 46.673649 185.82497 46.372583 186.83334 45.696952 187.36479 C 45.074633 187.8543 44.659704 187.83943 44.037622 187.30433 C 43.439639 186.78997 43.354811 185.88863 43.85262 185.33856 C 44.160112 184.99878 44.155032 184.96839 43.748751 184.68382 C 42.760187 183.9914 41.435998 184.63826 41.233142 185.91268 C 40.989645 187.44242 41.644749 188.71026 43.049052 189.42668 C 44.620564 190.22841 46.499227 189.69724 47.591927 188.14252 C 48.095787 187.42562 48.158818 187.18727 48.158818 186.00053 C 48.158818 184.16857 47.489938 182.97791 45.73571 181.68865 C 45.394749 181.43806 45.474585 181.4136 46.667952 181.4096 z M 81.490116 182.69117 C 81.922873 182.70987 82.283739 182.87591 82.537598 183.19864 C 83.157114 183.98623 83.031748 184.49818 81.928849 185.68944 C 80.840819 186.86464 80.402725 187.9525 80.421965 189.43081 C 80.452148 191.75002 81.543412 193.47135 84.91368 196.5141 C 86.227026 197.69982 87.67112 199.12572 88.122786 199.6829 C 88.574451 200.24008 89.00343 200.71979 89.0757 200.74899 C 89.147972 200.77815 89.692817 200.23273 90.286479 199.53717 C 90.880141 198.8416 92.348576 197.37763 93.549845 196.28414 C 96.851017 193.27916 98.032048 191.20513 97.759924 188.88976 C 97.59057 187.44882 97.093306 186.44373 96.061837 185.45535 C 95.258188 184.68524 95.185182 184.54593 95.295475 183.99445 C 95.475869 183.09248 95.911399 182.70771 96.752751 182.70771 C 98.257028 182.70771 100.63199 184.45514 101.38658 186.11732 C 101.60909 186.60746 101.74369 187.32136 101.74469 188.02005 C 101.74928 190.2806 100.39441 192.0883 96.709342 194.73643 C 93.126948 197.31078 91.327642 199.29618 89.895288 202.25639 C 89.498616 203.07617 89.131985 203.74643 89.076217 203.75294 L 89.0757 203.75294 L 89.075183 203.75294 C 89.023922 203.74966 88.587981 202.93451 88.106767 201.94168 C 87.0116 199.68217 85.118701 197.44286 82.923621 195.81027 C 79.308276 193.12136 78.584536 192.51388 77.791117 191.50356 C 75.817532 188.99045 75.969238 186.45641 78.219515 184.35154 C 79.332232 183.31072 80.438332 182.73639 81.300464 182.69221 C 81.365124 182.68889 81.428294 182.6885 81.490116 182.69117 z M 55.72063 182.8984 C 56.923097 182.90326 57.998123 183.3481 58.840336 184.19031 C 60.202025 185.552 60.508685 186.78651 60.741512 191.84152 C 60.843036 194.04577 61.008394 196.18463 61.108931 196.59472 C 61.444195 197.96224 61.481819 197.92679 59.576208 198.04786 C 58.627867 198.10811 56.887245 198.37571 55.708228 198.64266 C 53.309736 199.18568 50.936711 199.37478 49.88016 199.10723 C 45.548997 198.01043 44.649455 193.31835 48.438387 191.58676 C 49.031975 191.31548 49.74079 191.18936 50.862012 191.15526 C 52.70644 191.09919 52.637838 191.24811 51.969438 188.75437 C 51.615383 187.43342 51.592895 187.12532 51.783919 186.20517 C 52.211956 184.14332 53.703645 182.8904 55.72063 182.8984 z M 122.37858 182.90873 C 123.00752 182.91664 123.64494 183.0657 124.24875 183.36659 C 126.39327 184.43525 126.98115 186.91636 125.81506 189.97755 C 125.60027 190.54143 125.42444 191.0137 125.42439 191.0271 C 125.42434 191.0405 126.19997 191.08802 127.14831 191.13252 C 130.26742 191.27892 131.94854 192.58733 131.94854 194.86873 C 131.94854 196.78007 130.62198 198.39827 128.55133 199.01318 C 127.14035 199.4322 125.27059 199.34157 122.62817 198.72585 C 121.34663 198.42723 119.52198 198.12808 118.57364 198.06078 C 116.66334 197.92514 116.71244 197.97336 117.04195 196.54511 C 117.14285 196.10774 117.3031 194.04972 117.398 191.97174 C 117.59434 187.67455 117.90435 186.09374 118.80618 184.7851 C 119.65311 183.55613 120.9949 182.89133 122.37858 182.90873 z M 107.65079 183.6875 C 108.89382 183.67706 109.95246 184.43244 109.95246 185.73233 C 109.95246 186.93343 109.22993 188.20516 107.31645 190.37029 C 106.39327 191.41489 105.14182 193.0067 104.53574 193.90806 C 103.54231 195.38551 103.28243 195.63885 101.89352 196.47741 C 98.904986 198.28174 97.643812 199.15742 96.580668 200.16608 C 95.989781 200.72667 95.287552 201.30173 95.020557 201.44403 C 94.152193 201.90683 92.663092 203.72096 92.230029 204.84383 C 91.611096 206.44864 91.532946 208.74783 92.045544 210.26365 C 92.543437 211.73597 93.162578 212.74862 94.257812 213.87997 C 94.715968 214.35323 95.057639 214.76402 95.031409 214.80911 L 95.030892 214.80963 L 95.030892 214.81014 L 95.030375 214.81066 L 95.029858 214.81118 L 95.029342 214.81118 L 95.028825 214.81169 C 94.983742 214.83969 94.408691 214.82062 93.750867 214.76932 L 92.554557 214.6763 L 91.933923 213.54252 C 90.126928 210.24345 90.148935 205.79425 91.9887 202.50444 C 92.908482 200.85972 95.031949 198.68256 97.863794 196.48206 C 102.57055 192.82465 103.5651 191.43991 103.98073 187.96372 C 104.19741 186.15151 104.53883 185.34059 105.40339 184.5815 C 106.09295 183.97605 106.90498 183.69376 107.65079 183.6875 z M 70.366764 183.70248 C 70.931666 183.72004 71.561938 183.90512 72.200244 184.27919 C 73.40633 184.986 73.945571 186.01881 74.251282 188.20763 C 74.413058 189.3659 74.680528 190.36323 75.009375 191.03537 C 75.677787 192.40155 77.471067 194.27802 79.814766 196.06348 C 83.657555 198.99095 85.48241 200.89149 86.532703 203.05944 C 88.179795 206.45926 87.942338 210.85044 85.93739 214.07117 C 85.514207 214.75094 85.473608 214.76932 84.392782 214.76932 L 83.282772 214.76932 L 84.252738 213.60453 C 86.019227 211.48299 86.719722 209.30582 86.436068 206.81683 C 86.201667 204.76004 84.822713 202.53537 83.135494 201.49261 C 82.764139 201.2631 81.984839 200.61242 81.403817 200.0467 C 80.822796 199.48098 79.583137 198.55696 78.648946 197.99308 C 74.69303 195.60529 74.78509 195.67996 73.666821 193.96439 C 73.089607 193.07886 71.830413 191.46325 70.868026 190.37391 C 68.918767 188.1675 68.197388 186.92918 68.197388 185.78814 C 68.197388 184.43582 69.12398 183.66385 70.366764 183.70248 z M 29.35273 184.73549 C 30.382873 184.73768 31.49407 185.19957 32.377869 186.11991 C 32.871558 186.63401 36.438454 193.15422 36.271688 193.23782 C 36.248277 193.24955 35.234654 193.95481 34.019629 194.80465 C 32.804603 195.6545 31.390971 196.56042 30.878219 196.81796 C 29.843255 197.33783 28.191657 197.53062 27.253634 197.24119 C 26.051351 196.87022 25.0978 195.1922 25.40155 193.98196 C 25.571913 193.30318 26.672436 192.1555 27.651025 191.63636 C 28.114188 191.39066 28.493351 191.13569 28.493351 191.06999 C 28.493351 191.00424 28.196503 190.62707 27.83396 190.23128 C 26.446181 188.71626 26.093532 187.29031 26.814384 186.10802 C 27.373648 185.19074 28.322588 184.73331 29.35273 184.73549 z M 148.67878 184.75823 C 149.75079 184.75823 150.62101 185.25113 151.28379 186.23463 C 152.03183 187.34464 151.74736 188.58973 150.41666 190.03336 C 149.99875 190.48674 149.65701 190.94552 149.65701 191.05242 C 149.65701 191.15933 150.11191 191.50351 150.66781 191.81723 C 152.08041 192.61446 152.71109 193.4909 152.71109 194.65634 C 152.71109 195.64057 152.3674 196.27097 151.46104 196.94767 C 151.10731 197.21177 150.61271 197.33753 149.79499 197.37193 C 148.01436 197.44685 147.31877 197.13816 144.07028 194.831 C 142.89419 193.99572 141.90906 193.28939 141.88126 193.26159 C 141.85349 193.23382 142.58713 191.75145 143.51114 189.96722 C 145.73197 185.6789 146.64513 184.75823 148.67878 184.75823 z M 85.596326 186.2429 C 85.943827 186.25642 86.295162 186.34442 86.633472 186.51936 C 87.215556 186.82036 88.11088 187.77907 88.628699 188.65567 C 88.815862 188.97251 89.013685 189.23152 89.068465 189.23134 C 89.123253 189.23116 89.393877 188.87468 89.669462 188.43914 C 90.951673 186.4127 92.328886 185.80948 93.87334 186.5974 C 96.157419 187.76264 96.127263 190.48059 93.804093 192.86678 C 93.304895 193.37952 92.051537 194.56767 91.018734 195.50693 L 89.140812 197.21484 L 87.756401 195.99992 C 83.747574 192.48127 82.662037 191.05826 82.659037 189.31868 C 82.655994 187.53025 84.090487 186.1843 85.596326 186.2429 z M 24.050212 188.22624 L 24.515816 189.38534 L 24.981421 190.54444 L 24.453805 191.17955 C 24.163605 191.52887 23.880406 191.82108 23.824386 191.82808 C 23.707208 191.84356 23.789772 189.82298 23.945308 188.86909 L 24.050212 188.22624 z M 154.09344 188.39315 L 154.19576 189.04531 C 154.25191 189.40414 154.33828 190.18024 154.38748 190.76975 C 154.43668 191.35926 154.41977 191.83718 154.35027 191.83118 C 154.28078 191.82555 153.97214 191.54155 153.66452 191.20022 L 153.10538 190.5801 L 153.59941 189.48663 L 154.09344 188.39315 z M 63.444189 189.74449 L 64.34646 191.06844 C 65.477368 192.72769 67.833045 194.97004 69.885657 196.34202 C 70.751469 196.92074 72.830212 198.07875 74.50553 198.91499 L 77.551855 200.43531 L 76.029985 201.17118 C 75.192857 201.576 74.493041 201.90437 74.475041 201.90137 C 74.457036 201.89803 73.958066 201.35792 73.366581 200.70144 C 71.951949 199.13135 70.724829 198.51798 68.77203 198.40494 C 67.548576 198.33411 67.165334 198.39157 66.170121 198.79355 L 65.003267 199.26484 L 64.639982 198.67521 C 64.440337 198.35109 64.149875 197.66648 63.994027 197.15386 C 63.696887 196.17651 63.284271 191.62475 63.385278 190.43644 L 63.444189 189.74449 z M 114.74338 189.791 C 114.74385 189.7909 114.74449 189.79105 114.74493 189.791 L 114.74545 189.791 L 114.74597 189.791 C 114.88186 189.791 114.62603 194.28797 114.40904 195.71415 C 114.24218 196.81085 113.69721 198.51244 113.329 199.08656 C 113.19546 199.29477 112.93331 199.2479 111.89188 198.83127 C 110.80351 198.39586 110.42694 198.33459 109.30651 198.40959 C 107.5202 198.52922 106.40916 199.0877 104.87163 200.63788 C 104.17894 201.33627 103.54999 201.89777 103.47379 201.88587 C 103.39755 201.87393 102.71885 201.54474 101.96587 201.15465 L 100.59696 200.44565 L 103.62675 198.91344 C 105.2931 198.07063 107.50316 196.81444 108.53808 196.1224 C 110.59099 194.74965 113.27576 192.133 114.13464 190.66743 C 114.41263 190.19308 114.68369 189.80301 114.74338 189.791 z M 39.739176 194.82842 L 40.77994 195.97253 C 41.352546 196.60186 41.849052 197.1882 41.883232 197.2753 C 41.95853 197.46727 41.940012 197.46551 40.423372 197.12233 C 39.621435 196.94089 38.568048 196.87338 37.308834 196.92338 C 36.31149 196.96294 35.519734 196.9429 35.485689 196.87946 C 35.485575 196.87919 35.485261 196.87817 35.485173 196.87791 C 35.485141 196.87777 35.484773 196.87719 35.484656 196.87687 L 35.484656 196.87635 C 35.484633 196.87582 35.484575 196.87431 35.484656 196.87377 C 35.484722 196.8735 35.48508 196.87249 35.485173 196.87222 C 35.48535 196.87181 35.485923 196.87031 35.486206 196.86964 C 35.751206 196.44087 37.702765 195.35223 38.636401 195.11212 L 39.739176 194.82842 z M 138.77396 195.01497 C 139.47106 195.00976 141.76856 196.12247 142.35979 196.75181 L 142.78147 197.2014 L 141.97841 197.04585 C 141.53672 196.9605 140.67222 196.89145 140.05708 196.89237 C 139.44194 196.8933 138.33076 197.00272 137.58747 197.13577 C 136.86741 197.26466 136.27405 197.33716 136.23768 197.30165 L 136.23716 197.30165 L 136.23665 197.30114 L 136.23665 197.30062 L 136.23613 197.3001 L 136.23613 197.29958 L 136.23613 197.29907 L 136.23561 197.29855 L 136.23561 197.29803 C 136.23561 197.2541 136.67611 196.72353 137.21436 196.11878 C 138.0086 195.22641 138.30262 195.01897 138.77396 195.01497 z M 154.1756 197.73522 L 154.03711 198.74963 C 153.69137 201.28378 152.46098 205.4561 151.14065 208.57125 C 150.91252 209.1095 150.67416 209.55028 150.61096 209.55052 C 150.61071 209.55052 150.61018 209.55054 150.60993 209.55052 L 150.60941 209.55052 L 150.60889 209.55052 L 150.60838 209.55052 C 150.54688 209.52945 150.52306 208.84137 150.55515 208.00332 C 150.65553 205.38098 149.81866 202.80723 148.15788 200.63013 C 147.73918 200.08126 147.42858 199.60036 147.46748 199.56146 C 147.50636 199.52258 147.82564 199.57283 148.177 199.6736 C 149.88489 200.16342 151.94734 199.69705 153.28728 198.5176 L 154.1756 197.73522 z M 24.039876 197.91608 C 24.121217 197.91467 24.436955 198.11973 24.811405 198.42303 C 26.159796 199.5152 26.768134 199.74677 28.306799 199.75577 C 29.075723 199.7601 29.940272 199.69809 30.228129 199.61779 L 30.751611 199.47155 L 30.015739 200.4565 C 28.289853 202.76652 27.660827 204.65743 27.657227 207.54599 C 27.655717 208.75056 27.629786 209.73648 27.599866 209.73655 C 27.490061 209.7368 26.418795 207.21556 25.880074 205.68925 C 25.091506 203.45507 24.021522 198.99421 24.019722 197.93365 C 24.019703 197.92188 24.026566 197.91632 24.039876 197.91608 z M 139.31708 198.55997 C 142.50372 198.61951 145.30239 200.04116 146.96984 202.676 C 148.57717 205.21583 148.5917 209.23387 147.00446 212.21185 C 145.4853 215.06209 141.60058 218.14915 138.29905 219.12926 C 136.53231 219.65375 134.35251 219.45999 132.78776 218.63988 C 131.88575 218.16713 130.81352 216.98797 130.32073 215.92584 C 129.91688 215.05617 129.87035 214.7332 129.92695 213.21799 C 129.98242 211.73395 130.07311 211.332 130.58686 210.29104 C 131.28086 208.88486 132.32932 207.72987 133.57841 206.99563 C 134.34226 206.54663 134.65252 206.47684 135.81652 206.49334 C 136.55981 206.50385 137.16785 206.45425 137.16785 206.38275 C 137.16785 206.31124 137.02119 206.12407 136.84178 205.96676 C 133.46996 203.01035 127.52329 207.58343 127.46509 213.17769 L 127.45527 214.11716 L 127.13849 213.65259 C 126.48462 212.69308 125.51931 211.74793 124.83837 211.40053 C 123.84132 210.89187 122.24607 210.91825 121.28407 211.45893 C 120.55806 211.86697 119.64593 213.11118 119.64593 213.69342 C 119.64593 213.93692 119.47664 213.91285 118.57364 213.54149 C 117.98412 213.29907 117.1454 213.09804 116.70967 213.09604 C 116.27395 213.0936 115.91747 213.04708 115.91747 212.99268 C 115.91747 212.69046 120.50054 209.08632 123.16974 207.28916 C 129.21398 203.2196 134.51212 202.14728 137.86549 204.31466 C 141.15789 206.44265 141.3442 211.05962 138.1864 212.2656 C 137.08169 212.68749 135.94066 212.54182 134.5215 211.79792 L 133.39392 211.20675 L 133.51433 211.72971 C 133.8003 212.97142 135.8356 214.21018 137.58953 214.21018 C 139.75673 214.21018 141.89489 212.61698 142.49414 210.55562 C 143.87268 205.81357 139.17661 200.97533 133.19497 200.97533 C 132.50949 200.97533 131.94854 200.89471 131.94854 200.79601 C 131.94854 200.69734 132.56682 200.31927 133.32261 199.95575 C 135.35332 198.97902 137.40509 198.52425 139.31708 198.55997 z M 39.178487 198.56617 C 40.177219 198.59786 41.204861 198.7195 42.001571 198.92326 C 43.557189 199.32112 46.201831 200.50031 46.201831 200.79601 C 46.201831 200.89472 45.62772 200.97533 44.926457 200.97533 C 41.109181 200.97533 37.463258 203.0415 36.061882 205.9988 C 35.547876 207.0835 35.483622 207.40774 35.483622 208.89784 C 35.483622 210.4098 35.538774 210.67654 36.042761 211.60052 C 36.666285 212.74365 37.884011 213.69102 39.182104 214.04223 C 40.766497 214.4709 42.916678 213.94036 43.905847 212.87693 C 44.340536 212.4096 44.747378 211.51291 44.594177 211.35971 C 44.543221 211.30875 43.940517 211.56106 43.254724 211.91988 C 42.132824 212.50682 41.898647 212.56262 40.923083 212.47592 C 38.776904 212.2852 37.717879 211.03885 37.723279 208.71129 C 37.725814 207.62167 37.816497 207.24272 38.272599 206.41479 C 40.363508 202.61929 45.451391 202.21751 51.653695 205.35749 C 54.094945 206.59339 58.691937 209.82108 61.382817 212.1886 L 62.303691 212.99889 L 61.168359 213.12498 C 60.54401 213.19453 59.689135 213.42727 59.268734 213.64174 C 58.596222 213.9848 58.504439 213.99502 58.504439 213.72701 C 58.504439 213.11888 57.656473 211.92934 56.922107 211.5075 C 54.941449 210.36974 52.970886 210.91981 51.432003 213.04074 L 50.725069 214.01536 L 50.630501 212.76117 C 50.578501 212.07146 50.362824 211.02246 50.151461 210.42953 C 49.394087 208.30487 47.434706 206.13174 45.575513 205.35491 C 44.734466 205.00351 42.799447 204.99422 42.137996 205.33837 C 41.861149 205.48242 41.424855 205.82712 41.168547 206.10473 L 40.702942 206.60961 L 41.671358 206.47939 C 43.913055 206.17772 46.293192 207.70903 47.550069 210.2621 C 48.108678 211.39679 48.158818 211.64674 48.158818 213.27432 C 48.158818 214.94063 48.120105 215.12066 47.522681 216.22246 C 46.7973 217.56025 45.872907 218.375 44.479456 218.90447 C 43.197887 219.39143 41.34918 219.49159 39.988257 219.14735 C 37.396411 218.49174 34.158334 216.28802 32.222323 213.86292 C 31.020902 212.35799 30.609586 211.54482 30.159399 209.78461 C 29.25966 206.26666 30.102828 203.23123 32.632633 200.88024 C 33.755356 199.83688 35.170813 199.06287 36.529553 198.74963 C 37.210127 198.59273 38.179755 198.53449 39.178487 198.56617 z M 116.49987 200.75002 C 117.75079 200.70717 119.45991 200.88899 121.1616 201.26368 C 122.4296 201.54287 124.17983 201.87212 125.05128 201.99491 L 126.63568 202.21815 L 126.00471 202.57523 C 125.6575 202.77179 123.99756 203.8383 122.31605 204.94511 C 120.63455 206.05192 118.3812 207.66346 117.3086 208.52629 C 116.23599 209.38913 115.35833 210.05822 115.35833 210.01302 C 115.35833 209.96785 115.57719 209.27899 115.84461 208.48236 C 116.26131 207.24125 116.3205 206.79336 116.2575 205.35284 C 116.19301 203.87852 116.10159 203.50687 115.51595 202.33287 L 114.84829 200.99445 L 115.41879 200.86888 C 115.71665 200.80346 116.08289 200.7643 116.49987 200.75002 z M 60.134831 200.81565 C 60.454807 200.80778 60.783218 200.8126 61.151306 200.8265 C 62.145783 200.86409 63.014057 200.94882 63.080387 201.01512 C 63.146716 201.08145 62.92468 201.69733 62.586877 202.38351 C 62.070374 203.43268 61.96006 203.88881 61.89493 205.25104 C 61.826442 206.68351 61.88194 207.05815 62.375521 208.49012 C 62.67051 209.34595 62.865163 210.0474 62.822522 210.09467 L 62.822005 210.09519 L 62.821488 210.0957 L 62.820972 210.0957 L 62.820455 210.09622 C 62.820242 210.0963 62.819125 210.09668 62.818905 210.09674 L 62.818388 210.09674 L 62.817871 210.09674 L 62.817871 210.09725 L 62.817354 210.09725 L 62.816838 210.09725 L 62.816321 210.09674 C 62.751642 210.08992 61.985547 209.49553 61.114099 208.77589 C 60.242651 208.05625 57.893984 206.38558 55.894779 205.06294 C 53.895575 203.74029 52.096278 202.54373 51.896057 202.40418 C 51.567361 202.17508 51.648677 202.13733 52.734766 202.01454 C 53.396342 201.93974 55.153883 201.62663 56.64047 201.31846 C 58.291177 200.97627 59.174901 200.83926 60.134831 200.81565 z M 68.477474 200.98153 C 69.329699 200.97807 70.820631 201.76041 71.591496 202.61554 C 72.341126 203.44711 72.859501 204.37361 73.229639 205.54249 C 73.359499 205.95259 73.50538 206.35653 73.55365 206.44063 C 73.601928 206.52469 74.254347 205.99935 75.003174 205.27326 C 76.782232 203.5482 78.024987 202.9552 79.645785 203.05841 C 81.246891 203.16036 82.401104 203.97996 83.249699 205.61742 C 84.23231 207.51349 84.000927 209.39793 82.545866 211.34162 C 81.446558 212.81008 79.872738 213.85625 75.494617 216.03074 C 73.279169 217.13109 71.40693 218.05826 71.33363 218.09056 C 71.260326 218.1229 71.016852 217.7873 70.793095 217.34487 C 70.376029 216.52021 69.277986 214.88528 67.372632 212.25319 C 64.173352 207.83366 63.653459 204.4294 65.844043 202.23882 C 66.536442 201.54642 67.713828 200.98453 68.477474 200.98153 z M 109.58556 201.02184 C 111.00627 201.06998 112.63256 202.24354 113.30523 203.8072 C 114.28172 206.0771 113.37466 208.64832 109.8951 213.47276 C 108.82611 214.95492 107.72912 216.60767 107.45752 217.14592 C 107.18592 217.68416 106.86048 218.11335 106.73405 218.09935 C 106.21705 218.04199 98.454658 213.86708 97.360465 213.0578 C 94.879869 211.22314 93.805436 208.70833 94.504826 206.37397 C 94.815163 205.33817 95.947592 203.95506 96.904163 203.44288 C 97.61107 203.06439 97.933598 203.00634 98.954683 203.07494 C 100.51011 203.17951 101.41305 203.64577 103.04952 205.18954 C 104.24033 206.31289 104.73314 206.53429 104.73314 205.94557 C 104.73314 205.41392 106.04729 203.06181 106.71287 202.40212 C 107.52975 201.59248 108.08746 201.26705 108.99283 201.07196 C 109.18402 201.03077 109.3826 201.01496 109.58556 201.02184 z M 7.9886597 208.61827 L 15.68018 208.61827 L 23.3717 208.61827 L 24.089486 210.24918 C 27.573085 218.16511 34.510421 227.23368 45.903658 238.76527 L 48.892106 241.79041 L 48.250802 242.49321 C 47.897971 242.87988 43.371143 247.45335 38.191467 252.65641 C 33.011983 257.85927 28.732059 262.11038 28.68042 262.10338 C 28.37677 262.05986 24.147682 256.64295 22.376929 254.02946 C 14.10189 241.81616 9.4053284 228.3675 8.1777954 213.37147 C 8.0770914 212.14119 7.9928435 210.56811 7.9912435 209.87608 L 7.9886597 208.61827 z M 169.28424 208.80431 L 169.15763 211.18091 C 168.52911 222.97791 165.7608 233.83384 160.82739 243.84868 C 158.65753 248.25353 156.89769 251.15533 153.28573 256.2841 C 152.98161 256.71593 152.69108 257.06741 152.63978 257.06441 C 152.58852 257.0617 152.1676 256.75034 151.70444 256.37247 C 151.24129 255.99461 149.98292 254.96668 148.90822 254.08837 C 147.83353 253.21007 143.72465 249.86382 139.77751 246.65213 C 135.83036 243.44042 132.33282 240.56042 132.00486 240.25252 L 131.40852 239.69286 L 135.1039 235.85227 C 141.06951 229.65285 144.28159 225.89278 147.8163 220.97049 C 149.84255 218.14884 152.47932 213.71973 153.76426 210.97937 L 154.78332 208.80638 L 162.03352 208.80534 L 169.28424 208.80431 z M 89.124276 211.9483 L 89.938696 213.66138 C 90.386508 214.60372 90.7526 215.38866 90.7526 215.40546 C 90.7526 215.42231 90.383333 215.74492 89.931978 216.12221 L 89.111357 216.80795 L 88.430261 216.2669 C 88.055665 215.96921 87.659666 215.69569 87.550212 215.65919 C 87.436033 215.62114 87.729384 214.81598 88.238025 213.77041 L 89.124276 211.9483 z M 55.030233 213.0919 C 56.465215 213.0919 57.062717 214.22048 56.58311 216.02454 C 56.440456 216.56114 56.366912 217.04341 56.419812 217.09631 C 56.472717 217.14921 56.883032 217.19243 57.331384 217.19243 C 59.000033 217.19243 60.190736 218.30378 59.906938 219.5959 C 59.745702 220.33 58.695696 221.24062 57.821794 221.40457 C 57.089233 221.542 52.370239 221.37285 52.200431 221.20304 C 52.145319 221.14793 52.321899 220.6214 52.592655 220.03308 C 53.176826 218.76376 54.217362 216.11122 54.217362 215.89122 C 54.217362 215.80612 54.050413 215.78004 53.846842 215.83334 C 53.214149 215.99879 52.243698 217.2608 51.226331 219.2414 C 50.490832 220.67326 50.064805 221.27726 49.502405 221.68466 C 49.091545 221.98228 48.704866 222.22571 48.643026 222.22571 C 48.426278 222.22571 46.667952 220.89934 46.667952 220.73588 C 46.667952 220.64504 47.202122 220.22541 47.855477 219.80312 C 49.394512 218.80839 50.741964 217.44698 51.926029 215.69019 C 53.243804 213.73501 54.012439 213.0919 55.030233 213.0919 z M 122.95425 213.09242 C 124.02621 213.09349 124.71234 213.64552 126.13494 215.65195 C 127.58431 217.69615 129.22371 219.3202 130.64112 220.11628 C 131.15501 220.40491 131.5722 220.68303 131.5682 220.73433 C 131.5644 220.78559 131.09794 221.14207 130.53157 221.52653 C 129.96521 221.911 129.43461 222.22571 129.35231 222.22571 C 129.16096 222.22571 128.19579 221.48303 127.90434 221.11157 C 127.78179 220.95538 127.25069 220.00706 126.72405 219.0042 C 125.7248 217.10142 124.69164 215.88811 124.07098 215.88811 C 123.84815 215.88811 123.74746 215.97855 123.81156 216.12118 C 123.86916 216.24934 124.24871 217.16228 124.65492 218.15051 C 125.06113 219.13873 125.53203 220.21621 125.70189 220.54468 C 125.8718 220.87316 125.9789 221.17407 125.9396 221.21337 C 125.90027 221.25271 124.69617 221.34082 123.26379 221.40922 C 120.87608 221.52321 120.5863 221.50142 119.78442 221.14671 C 118.9003 220.75563 118.15606 219.86082 118.15506 219.18714 C 118.15269 218.04467 119.30483 217.19294 120.85154 217.19294 C 121.77859 217.19294 121.78964 217.17056 121.48819 215.97338 C 121.06826 214.3057 121.6864 213.09142 122.95425 213.09242 z M 116.03219 215.16206 C 116.67491 215.1682 117.3276 215.3213 117.66672 215.56927 C 117.96191 215.78512 117.92671 215.87098 117.25021 216.58213 C 116.84234 217.01089 116.45519 217.63498 116.38669 217.97481 C 116.13802 219.20847 116.23943 219.1473 114.38165 219.1861 C 113.28669 219.20898 112.02484 219.38322 110.93121 219.66256 C 109.98287 219.90479 109.20677 220.03236 109.20677 219.94626 C 109.20677 219.42708 110.25513 217.85525 110.93535 217.35417 C 111.98556 216.58053 114.559 215.34428 115.40484 215.20702 C 115.60501 215.17454 115.81795 215.16001 116.03219 215.16206 z M 62.052026 215.16723 C 62.57555 215.18344 63.163005 215.35806 64.056038 215.71138 C 66.820046 216.80491 68.142753 217.88316 68.902771 219.66256 C 69.147971 220.23664 69.016668 220.2931 68.197388 219.96538 C 67.216375 219.57296 65.127917 219.24347 63.621956 219.24347 C 62.062559 219.24347 62.052775 219.24041 61.939372 218.73083 C 61.713825 217.71734 61.619505 217.46529 61.291866 216.99967 C 61.108922 216.73969 60.742405 216.41078 60.477445 216.26897 C 59.826233 215.92046 59.867472 215.79331 60.745129 215.44215 C 61.144871 215.2822 61.481011 215.18947 61.830851 215.16981 C 61.903735 215.16572 61.977237 215.16491 62.052026 215.16723 z M 31.848702 217.11181 C 31.848702 217.05597 32.745601 217.69205 33.841862 218.52516 C 36.223635 220.33521 38.494559 221.46408 41.231592 222.19884 C 42.96613 222.66449 43.355643 222.84272 43.986462 223.45871 C 45.111099 224.55688 45.249001 225.27342 44.722335 227.29207 C 44.364852 228.66225 44.304417 229.26763 44.380237 230.71718 C 44.430877 231.68557 44.451262 232.4778 44.425712 232.4778 C 44.330362 232.4778 40.611354 228.39422 38.823987 226.32675 C 36.18071 223.26923 31.848702 217.54619 31.848702 217.11181 z M 146.22105 217.24514 C 146.22376 217.24487 146.22688 217.2448 146.2288 217.24514 C 146.22909 217.24521 146.22957 217.24556 146.22983 217.24565 L 146.23035 217.24617 C 146.23057 217.24631 146.2317 217.24705 146.2319 217.2472 L 146.23242 217.24772 C 146.36571 217.38102 143.15405 221.69031 140.95522 224.32843 C 139.82547 225.68389 137.7447 228.07212 136.33121 229.6356 C 134.91772 231.19907 133.69787 232.4778 133.62027 232.4778 C 133.54267 232.4778 133.55216 232.16359 133.64146 231.77913 C 133.90505 230.64407 133.83124 229.12463 133.43992 227.63158 C 132.97242 225.84821 132.97569 225.32761 133.46214 224.32274 C 133.98901 223.23438 134.8257 222.72959 137.07484 222.14251 C 139.51818 221.50475 142.24966 220.14747 144.40927 218.49777 C 145.32261 217.80008 146.11064 217.25613 146.22105 217.24514 z M 84.389681 217.38415 C 85.813591 217.41072 87.234092 218.371 88.656087 220.26821 L 89.075183 220.82786 L 89.492729 220.26821 C 91.592123 217.45691 93.614288 216.7393 95.726973 218.05594 C 96.310293 218.41946 96.770406 218.91894 97.164095 219.61605 C 97.661798 220.49734 97.742087 220.82451 97.737187 221.94614 C 97.732361 223.01154 97.633188 223.43914 97.197685 224.27623 C 96.595991 225.43276 94.392837 227.70275 91.17428 230.48257 C 90.022188 231.47762 89.057671 232.28529 89.030741 232.27729 C 89.003814 232.26939 87.933616 231.34855 86.652075 230.23091 C 81.747635 225.95375 80.312428 224.05641 80.316028 221.85312 C 80.318982 220.04394 81.411817 218.31745 82.964445 217.66888 C 83.440019 217.47023 83.915044 217.37529 84.389681 217.38415 z M 78.73783 217.61876 C 78.747399 217.61906 78.754284 217.62126 78.757983 217.62496 L 78.757983 217.62548 L 78.7585 217.62599 C 78.779706 217.67046 78.585687 218.22857 78.321318 218.87966 C 77.316394 221.3546 77.621859 224.13005 79.14814 226.39187 C 80.027231 227.69461 81.881657 229.60688 84.458927 231.86853 C 85.559562 232.83438 86.648062 233.88876 86.877901 234.21154 C 87.350719 234.87555 87.43342 235.99319 87.044299 236.46205 C 86.905921 236.62879 86.55293 236.76539 86.259851 236.76539 C 85.790769 236.76539 85.58579 236.54784 84.546777 234.94793 C 83.89761 233.94833 82.728843 232.37576 81.94952 231.45306 C 80.336566 229.54333 74.713046 224.21307 72.776953 222.75901 L 71.484526 221.78853 L 72.294812 221.06919 C 72.961229 220.4778 78.339123 217.60605 78.73783 217.61876 z M 99.470414 217.73555 C 99.475654 217.73527 99.481035 217.73537 99.486951 217.73555 C 99.625284 217.73975 99.950678 217.86889 100.56699 218.14586 C 102.5057 219.01712 105.25042 220.56548 105.99095 221.20562 L 106.65189 221.77716 L 105.29176 222.78537 C 103.54716 224.07871 97.428986 229.93831 96.047367 231.63909 C 95.464379 232.35675 94.410317 233.80406 93.704875 234.85492 C 92.578652 236.53259 92.357321 236.76539 91.889998 236.76539 C 91.317174 236.76539 91.059678 236.54432 90.854403 235.87501 C 90.586128 235.00029 91.37731 233.94421 94.067126 231.58638 C 97.097591 228.92996 97.915255 228.09622 98.940214 226.61666 C 100.73851 224.02074 100.89636 221.21992 99.432174 217.89523 C 99.388136 217.79522 99.391818 217.7397 99.470414 217.73555 z M 115.26893 221.42679 C 115.44402 221.42657 115.68589 221.43527 115.95158 221.45367 C 116.66497 221.50306 117.14796 221.67884 117.79798 222.12598 C 118.28215 222.45903 119.06029 222.82789 119.52759 222.94556 L 120.37767 223.15951 L 119.8454 223.95067 C 117.46174 227.4955 119.8532 232.48112 123.933 232.47212 C 127.31911 232.46461 129.23356 228.76977 127.0124 226.52881 C 126.47587 225.98752 126.25216 225.89164 125.52257 225.89164 C 124.12776 225.89164 122.92461 227.0589 124.03274 227.33703 C 124.75486 227.51827 125.42439 228.26972 125.42439 228.89921 C 125.42439 230.06971 123.78766 230.61749 122.63282 229.83352 C 121.21334 228.86989 120.74781 227.24626 121.42566 225.62395 C 122.09213 224.02884 123.38763 223.26111 125.42439 223.25511 C 127.18031 223.24968 128.51552 223.84924 129.79466 225.21674 C 131.1871 226.70537 131.48241 227.53581 131.48241 229.96167 C 131.48241 231.8756 131.44388 232.09253 130.90002 233.22349 C 129.83675 235.43459 128.25625 236.8234 126.01866 237.5147 C 125.33672 237.72532 124.29464 237.88315 123.5847 237.88315 L 122.34292 237.88315 L 122.31708 236.75609 C 122.26977 234.69807 120.93919 232.7857 118.99532 231.98171 L 118.20415 231.65459 L 118.21346 230.21902 C 118.22149 228.97186 118.14502 228.6255 117.62951 227.57836 C 117.23871 226.78452 117.0352 226.09474 117.0342 225.55729 C 117.03205 224.59392 116.39467 223.12818 115.56917 222.18799 C 115.24811 221.82232 114.98529 221.4925 114.98523 221.4547 L 114.98523 221.45418 L 114.98575 221.45367 L 114.98575 221.45315 L 114.98575 221.45263 L 114.98626 221.45212 L 114.98678 221.4516 C 115.002 221.43579 115.10736 221.42701 115.26893 221.42679 z M 62.292322 221.48002 L 63.203377 221.48002 L 62.600313 222.1668 C 61.757037 223.12724 61.118366 224.58705 61.116166 225.55833 C 61.114958 226.09936 60.910147 226.78881 60.508451 227.60471 C 59.998696 228.6401 59.900751 229.05171 59.890401 230.20042 L 59.877999 231.56571 L 58.958158 231.99669 C 57.037036 232.89695 55.898314 234.53879 55.748535 236.62535 L 55.658101 237.88367 L 54.518119 237.87127 C 50.890306 237.83222 47.808988 235.56088 46.847786 232.21683 C 46.387738 230.61631 46.530425 228.25302 47.171281 226.85799 C 48.678764 223.57647 52.708056 222.19617 55.394035 224.04111 C 57.454737 225.45657 57.594556 228.31641 55.672571 229.73998 C 54.994028 230.24259 53.646007 230.27025 53.118205 229.79269 C 52.331549 229.08092 52.885133 227.60359 54.032878 227.3515 C 54.759558 227.1919 54.740523 226.78577 53.984302 226.32469 C 53.26686 225.8873 52.170655 225.84607 51.430969 226.22857 C 50.807892 226.55078 50.116321 227.86202 50.116321 228.72144 C 50.116321 230.77198 51.990234 232.46518 54.269556 232.47418 C 56.130772 232.48125 57.666655 231.5449 58.597974 229.83558 C 59.044784 229.01553 59.15169 228.56785 59.21344 227.25848 C 59.285058 225.73996 59.260972 225.62193 58.631563 224.41783 C 58.270357 223.72682 58.031053 223.12839 58.099813 223.08819 C 58.168574 223.04796 58.485937 222.95909 58.804679 222.89079 C 59.123421 222.8225 59.833113 222.47725 60.382361 222.12339 C 61.173328 221.61379 61.570747 221.48002 62.292322 221.48002 z M 111.40095 222.64274 C 111.63677 222.63515 111.86377 222.64701 112.07998 222.67943 C 113.00405 222.818 113.90675 223.45165 114.32067 224.25194 L 114.5744 224.74235 L 112.68304 224.74235 C 110.52443 224.74235 109.82267 225.00599 108.33654 226.37585 C 106.88359 227.71514 106.45309 228.66311 105.27523 233.12065 C 104.42817 236.3263 104.02589 237.11452 102.62474 238.31155 C 101.5645 239.21734 101.0052 240.12575 101.0052 240.94137 C 101.0052 241.54269 101.10105 241.54659 101.61964 240.96669 C 102.21384 240.30225 102.87171 240.20207 103.48309 240.68298 C 104.14744 241.20559 104.16785 242.10897 103.53063 242.79655 C 103.15844 243.19819 102.90747 243.28959 102.17929 243.28903 C 99.973219 243.28731 98.558574 241.10249 98.553674 237.68988 C 98.550913 235.69573 98.937176 234.1553 99.977877 232.01219 C 102.29701 227.23643 107.86373 222.75657 111.40095 222.64274 z M 66.65588 222.68305 C 67.687392 222.72872 69.11488 223.12773 70.245841 223.73053 C 72.659432 225.01696 75.667603 227.87578 77.354451 230.48567 C 78.203365 231.7991 79.084502 234.01432 79.365181 235.54118 C 79.95785 238.76522 79.152106 241.89388 77.464006 242.92316 C 77.090319 243.15101 76.52985 243.28859 75.97159 243.28903 C 74.845285 243.2899 74.162398 242.70603 74.162398 241.74235 C 74.162398 240.44935 75.590524 240.00619 76.609794 240.98271 L 77.145162 241.49534 L 77.144128 240.85455 C 77.142591 240.05305 76.760762 239.46999 75.350956 238.11466 C 74.016277 236.83157 73.607415 236.00414 72.872555 233.10102 C 71.806815 228.89074 71.230287 227.65442 69.684635 226.26474 C 68.308581 225.02755 67.009097 224.5863 65.081299 224.70153 L 63.549609 224.79351 L 63.81936 224.27158 C 64.172216 223.58924 64.908876 223.02217 65.782031 222.76056 C 66.01224 222.69159 66.312042 222.66782 66.65588 222.68305 z M 46.598189 222.79725 C 46.709891 222.78481 47.320109 223.55585 47.320109 223.73776 C 47.320109 223.82891 47.249599 223.90313 47.163529 223.90313 C 47.010733 223.90313 46.568299 223.08296 46.580619 222.82257 C 46.581384 222.80642 46.587687 222.79842 46.598189 222.79725 z M 131.54598 222.79725 C 131.56025 222.79571 131.56832 222.80348 131.56923 222.82257 C 131.57264 222.89463 131.4784 223.16761 131.35942 223.42874 C 131.14991 223.88857 130.83026 224.07525 130.83026 223.73776 C 130.83026 223.55896 131.41969 222.81095 131.54598 222.79725 z M 112.35955 227.07244 C 113.55274 227.01931 114.78279 227.53917 115.33973 228.44032 C 115.98963 229.49188 116.02603 230.5162 115.47099 232.12433 C 115.20387 232.89821 114.98575 233.58786 114.98575 233.65706 C 114.98575 233.72629 115.42573 233.78361 115.96398 233.78418 C 116.50223 233.78475 117.27651 233.87768 117.68429 233.99089 C 118.66671 234.26364 119.73951 235.35501 119.90534 236.25018 C 120.18111 237.73893 119.20324 239.4586 117.68997 240.14607 C 117.19284 240.37191 116.50601 240.48451 115.6379 240.48351 C 114.27423 240.48132 114.0538 240.41108 109.30031 238.46917 C 108.27508 238.05034 107.29448 237.70529 107.12111 237.70229 C 106.62725 237.6944 106.56117 237.39892 106.88236 236.63362 C 107.04561 236.24464 107.4659 234.72923 107.81667 233.26587 C 108.76032 229.32903 109.49517 228.03991 111.20458 227.32359 C 111.56772 227.17141 111.96182 227.09016 112.35955 227.07244 z M 65.458537 227.09777 C 67.173657 227.10001 68.637623 228.1969 69.471212 230.12601 C 69.598878 230.42146 69.98799 231.84735 70.335758 233.2948 C 70.683526 234.74225 71.105264 236.2522 71.273169 236.65015 C 71.441076 237.0481 71.510041 237.43257 71.426131 237.50437 C 71.342225 237.57611 70.895815 237.74025 70.43446 237.8692 C 69.973105 237.99814 68.588958 238.52662 67.358679 239.04381 C 66.128399 239.56099 64.702496 240.09764 64.18988 240.2365 C 60.764206 241.16448 57.857179 239.32861 58.182495 236.44242 C 58.304719 235.35805 58.776814 234.72876 59.883167 234.17434 C 60.538385 233.84599 61.107333 233.7214 62.017403 233.7077 C 62.73595 233.6969 63.241273 233.61084 63.218363 233.50306 C 63.196604 233.40069 62.967614 232.81336 62.709867 232.19823 C 62.119257 230.78868 62.101585 229.64236 62.65509 228.67441 C 63.253125 227.62858 63.908627 227.21152 65.112305 227.11172 C 65.228765 227.10206 65.344195 227.09762 65.458537 227.09777 z M 97.283984 233.50306 L 97.140841 234.71487 C 97.061932 235.38127 96.997513 237.14278 96.997697 238.62936 C 96.998007 241.15021 97.030524 241.40196 97.482422 242.36608 C 97.748916 242.93464 98.225503 243.6942 98.541272 244.05384 C 99.181285 244.78277 100.58517 245.60376 101.53489 245.80463 C 103.82926 246.28993 106.22452 244.45156 106.22452 242.20537 C 106.22452 241.77638 106.29662 241.42557 106.38472 241.42557 C 106.76717 241.42557 108.3361 243.04889 109.19489 244.33289 C 110.38631 246.1142 110.8847 247.69694 110.8847 249.70104 C 110.8847 252.51302 110.00542 254.68421 107.98256 256.86908 C 107.3452 257.55749 106.40451 258.34905 105.89173 258.62814 L 105.89173 258.62866 C 104.8269 259.20822 103.53062 259.41435 102.91465 259.10253 C 102.67628 258.98186 102.40246 258.585 102.28316 258.18682 C 102.10282 257.58492 102.12455 257.39536 102.43354 256.86442 C 102.78975 256.25231 102.94096 256.18524 104.72074 255.84226 C 105.51281 255.68964 106.53202 254.47543 106.8834 253.26671 C 107.49917 251.14853 106.85017 248.7521 105.2189 247.12083 C 104.05629 245.95818 103.64382 245.97377 104.24325 247.15752 C 105.54168 249.72164 105.62806 252.47773 104.44685 253.65894 C 104.1019 254.00385 103.80353 254.10129 103.09138 254.10129 C 102.45047 254.10129 101.9914 254.22748 101.54987 254.52503 C 100.77768 255.0454 100.07296 256.05698 100.07296 256.64532 C 100.07296 257.26263 99.473587 257.22009 98.033809 256.50062 C 97.164529 256.06624 96.650756 255.63907 96.019979 254.82682 C 94.789848 253.24275 93.459409 250.96277 93.87489 251.15056 C 93.951852 251.18534 94.473366 251.45508 95.033993 251.74949 C 97.081122 252.82457 99.448725 252.32778 100.25951 250.65292 C 100.65748 249.83083 100.73626 248.96198 100.4533 248.51455 C 100.24814 248.19015 100.14301 248.27454 99.730347 249.09746 C 99.35052 249.85488 98.739415 250.1797 97.689128 250.1837 C 95.160413 250.19239 93.554529 247.69728 93.552429 243.75566 C 93.550844 240.82889 94.659644 237.47969 96.60754 234.52832 L 97.283984 233.50306 z M 80.922192 233.67463 C 80.922612 233.67453 80.9233 233.67468 80.923743 233.67463 C 81.101366 233.65261 82.625152 236.13094 83.21921 237.41755 C 84.109624 239.34601 84.427296 240.71239 84.541093 243.10299 C 84.695548 246.34773 84.006138 248.39671 82.380501 249.52327 C 80.894221 250.55327 78.891928 250.28428 78.347673 248.9817 C 78.013044 248.18082 77.786561 248.14305 77.642289 248.8644 C 77.519442 249.47865 77.739791 250.39396 78.166805 251.04566 C 79.045923 252.38737 81.964196 252.66436 83.571126 251.55829 C 84.460206 250.94632 84.432886 251.34801 83.479142 252.9179 C 82.272455 254.90416 81.347921 255.88506 80.089168 256.51406 C 78.791588 257.16248 78.294206 257.22526 78.154919 256.75745 C 78.101499 256.57803 77.884058 256.07704 77.671745 255.64434 C 77.216636 254.71682 76.137365 254.10129 74.967517 254.10129 C 73.42137 254.10129 72.75493 252.96752 72.897876 250.5816 C 72.965193 249.45802 73.123075 248.85961 73.653902 247.71666 C 74.435545 246.03365 74.250403 245.83975 72.980558 247.01025 C 71.323652 248.53753 70.62466 251.05811 71.255599 253.22847 C 71.75519 254.947 72.668378 255.76639 74.405794 256.05465 C 75.38659 256.21738 75.840332 256.72234 75.840332 257.65146 C 75.840332 258.20356 75.717464 258.52776 75.382479 258.86275 L 75.382479 258.86327 C 74.34429 259.90146 72.159094 259.04844 70.099597 256.80086 C 68.224691 254.75473 67.26808 252.39075 67.27238 249.81421 C 67.275356 248.03954 67.500915 247.06877 68.293506 245.41809 C 68.928476 244.09569 71.201691 241.42609 71.692782 241.42609 C 71.845786 241.42609 71.925842 241.72446 71.925842 242.29529 C 71.925842 243.49001 72.615504 244.62321 73.747953 245.2889 C 74.969468 246.00644 76.633658 246.00918 78.007125 245.2951 C 79.185043 244.68269 80.368654 243.36859 80.788867 242.20744 C 81.208633 241.04752 81.361354 237.26135 81.068953 235.26161 C 80.947087 234.42816 80.877918 233.71638 80.914958 233.67928 C 80.917103 233.67712 80.919253 233.67528 80.922192 233.67463 z M 89.19869 237.16847 L 89.53252 237.73278 C 89.724546 238.05785 90.212427 238.45096 90.68232 238.65882 C 91.131219 238.85739 91.498291 239.05077 91.498291 239.08877 C 91.498291 239.12673 91.324315 239.56324 91.111751 240.05873 C 90.1206 242.3691 89.757562 245.59114 90.210514 248.05514 C 90.494365 249.59926 91.375345 251.80207 92.250183 253.15561 C 92.656997 253.78504 92.989673 254.32784 92.989673 254.36174 L 92.989673 254.36225 C 92.989627 254.36252 92.98924 254.36342 92.989156 254.3638 L 92.989156 254.36432 C 92.966563 254.39983 92.597704 254.47715 92.150448 254.53847 C 91.179904 254.67149 90.069558 255.19439 89.558875 255.75907 C 89.120854 256.24343 89.031341 256.24546 88.612679 255.78284 C 88.140908 255.26154 86.49041 254.47387 85.869694 254.47387 C 85.209185 254.47387 85.214953 254.34106 85.929639 253.1308 C 87.227996 250.93215 88.14294 247.79872 88.14294 245.5509 C 88.14294 244.16625 87.748016 242.11384 87.145585 240.36879 C 86.663939 238.97362 86.674304 238.81591 87.248938 238.81591 C 87.440722 238.81591 87.957897 238.44525 88.398222 237.99219 L 89.19869 237.16847 z M 126.46101 239.57866 C 126.54179 239.57824 126.54266 239.63041 126.54266 239.72335 C 126.54266 239.86873 120.72852 245.32559 115.23328 250.33769 C 114.08794 251.38233 113.12162 252.2368 113.08612 252.2368 C 113.05062 252.2368 113.10041 251.57187 113.19671 250.75885 C 113.50248 248.17736 112.57318 244.99902 110.78445 242.50923 C 110.42946 242.01511 110.13901 241.58091 110.13901 241.54391 C 110.13901 241.50695 110.83109 241.75643 111.6769 242.0984 C 113.6674 242.90319 115.00394 243.17365 116.3128 243.03684 C 118.01034 242.85941 119.3864 242.2448 120.46138 241.18424 L 121.41636 240.24218 L 123.0943 240.20601 C 124.10178 240.18418 125.09785 240.04809 125.58768 239.86546 C 126.1216 239.66648 126.35716 239.5792 126.46101 239.57866 z M 51.678499 239.63964 C 51.798236 239.6339 52.196877 239.72759 52.641231 239.86908 C 53.177977 240.03998 54.211783 240.16205 55.109814 240.16105 L 56.654423 240.15898 L 57.631624 241.13619 C 59.800264 243.30483 62.911729 243.60436 66.707556 242.00952 C 67.964293 241.4815 68.023853 241.47246 67.747803 241.85656 C 65.561509 244.89869 64.533654 248.36298 64.985697 251.16503 C 65.080807 251.75455 65.108562 252.23467 65.047192 252.23267 C 64.985821 252.23029 64.554369 251.87382 64.088595 251.44047 C 63.622821 251.00712 61.609751 249.15027 59.614966 247.3141 C 55.073778 243.134 51.5492 239.74412 51.64491 239.64842 C 51.64994 239.64339 51.661394 239.64046 51.678499 239.63964 z M 127.00878 243.89829 L 128.03405 244.70599 C 132.62752 248.32482 148.63175 261.52122 148.63175 261.68997 C 148.63175 261.80753 147.72693 262.8706 146.62102 264.05262 C 145.51512 265.23462 144.36891 266.37366 144.07389 266.58373 L 143.53749 266.96562 L 141.68386 264.96057 C 140.66441 263.85771 138.24585 261.22422 136.30899 259.10822 C 134.37211 256.99223 131.15797 253.51098 129.16628 251.37225 C 127.17458 249.23353 125.29144 247.21101 124.98152 246.87744 L 124.41773 246.27076 L 125.71326 245.08427 L 127.00878 243.89829 z M 53.253597 245.80618 L 54.900525 247.40867 C 55.806236 248.2901 59.566485 251.81311 63.256604 255.23765 C 75.128002 266.25467 79.320485 270.3826 84.465645 276.11855 L 85.906384 277.72413 L 85.906384 283.34188 L 85.906384 288.95911 L 84.741081 288.93327 C 78.969212 288.80628 69.939646 287.15446 63.550643 285.0565 C 52.852115 281.54342 42.239427 275.27864 33.944181 267.57953 L 32.778361 266.49691 L 43.015979 256.15181 L 53.253597 245.80618 z M 120.19008 250.41262 C 120.2833 250.39717 121.13232 251.23608 122.08816 252.28796 C 123.05152 253.34812 127.10377 257.77567 131.09329 262.12715 C 135.0828 266.47864 138.54749 270.25745 138.79205 270.52457 L 139.23646 271.01033 L 137.4097 272.40818 C 125.36711 281.62558 110.31347 287.47528 95.319763 288.76325 L 95.319763 288.76274 C 94.089484 288.86842 92.810243 288.95633 92.477043 288.95704 L 91.871395 288.95911 L 91.871395 283.58062 L 91.871395 278.20162 L 93.948271 275.79815 C 96.489315 272.85758 105.85145 263.48623 111.16427 258.56561 C 115.97105 254.11365 119.98894 250.48404 120.18801 250.41314 C 120.18836 250.41305 120.18971 250.41268 120.19008 250.41262 z M 92.803638 256.91197 C 94.671622 256.81641 96.336755 258.47303 96.336755 260.81199 C 96.336755 262.75559 95.476533 263.91476 91.272465 267.63896 C 90.071821 268.70256 89.065549 269.56729 89.035909 269.56029 C 89.006273 269.55327 87.870591 268.56736 86.512549 267.36973 C 82.671857 263.98272 81.813611 262.76746 81.813611 260.71845 C 81.813611 258.65416 82.962271 257.13843 84.673385 256.94556 C 85.9513 256.80152 86.704533 257.16022 87.92745 258.49482 C 88.531579 259.15412 89.068645 259.69319 89.121175 259.69319 C 89.173706 259.69319 89.564602 259.23272 89.989856 258.66948 C 90.416152 258.10485 91.09207 257.47731 91.496224 257.27112 C 91.930956 257.04933 92.372564 256.93402 92.803638 256.91197 z M 98.675114 259.19245 L 99.60529 259.43791 C 100.11698 259.5729 100.57103 259.79017 100.61453 259.92109 C 100.76609 260.37752 101.76534 261.15797 102.36171 261.28586 C 102.69214 261.35671 103.01391 261.4446 103.07691 261.4812 C 103.13987 261.51784 100.82646 263.92002 97.936141 266.81886 C 95.045835 269.71771 91.897361 273.0121 90.939669 274.13986 C 89.981976 275.26761 89.142146 276.21377 89.073116 276.24257 L 89.072599 276.24309 L 89.072083 276.24309 C 88.993718 276.25972 88.289802 275.52115 87.499569 274.59202 C 85.345519 272.05935 80.933018 267.4211 77.685697 264.27586 L 74.815072 261.49567 L 75.533374 261.33909 C 76.393109 261.15161 77.266118 260.56582 77.423181 260.07095 C 77.542013 259.69654 77.741984 259.6024 78.822579 259.41207 L 79.475252 259.29683 L 79.476286 260.93963 C 79.47713 262.33384 79.553279 262.74594 79.981165 263.66091 C 80.758109 265.32227 81.93953 266.68104 84.799475 269.20372 C 86.243684 270.47762 87.482055 271.61686 87.551245 271.73535 C 87.620436 271.85384 87.983427 272.28786 88.357914 272.69963 L 89.03901 273.44843 L 91.176864 271.37052 C 92.35276 270.22788 94.233586 268.41264 95.356453 267.33614 C 97.007173 265.75361 97.520123 265.1298 98.036393 264.07794 C 98.628972 262.87056 98.675114 262.64793 98.675114 260.98459 L 98.675114 259.19245 z " /></g></svg>
